Alegreya Sans-Regular.ufo
<glyph name="quotedbl" format="1">
  <advance width="280"/>
  <unicode hex="0022"/>
  <outline>
    <contour>
      <point x="57" y="634" type="line"/>
      <point x="52" y="450" type="line"/>
      <point x="59" y="443" type="line"/>
      <point x="99" y="449" type="line"/>
      <point x="123" y="632" type="line"/>
      <point x="117" y="639" type="line"/>
    </contour>
    <contour>
      <point x="172" y="634" type="line"/>
      <point x="167" y="450" type="line"/>
      <point x="174" y="443" type="line"/>
      <point x="214" y="449" type="line"/>
      <point x="238" y="632" type="line"/>
      <point x="232" y="639" type="line"/>
    </contour>
  </outline>
</glyph>
<glyph name="dollar" format="1">
  <advance width="434"/>
  <unicode hex="0024"/>
  <outline>
    <contour>
      <point x="213" y="467" type="line"/>
      <point x="178" y="30" type="line"/>
      <point x="225" y="30" type="line"/>
      <point x="262" y="467" type="line"/>
    </contour>
    <contour>
      <point x="178" y="30" type="line"/>
      <point x="166" y="-122" type="line"/>
      <point x="174" y="-129" type="line"/>
      <point x="212" y="-129" type="line"/>
      <point x="225" y="30" type="line"/>
    </contour>
    <contour>
      <point x="227" y="642" type="line"/>
      <point x="214" y="467" type="line"/>
      <point x="261" y="467" type="line"/>
      <point x="275" y="634" type="line"/>
      <point x="267" y="642" type="line"/>
    </contour>
    <contour>
      <point x="129" y="501"/>
      <point x="61" y="440"/>
      <point x="61" y="363" type="curve" smooth="yes"/>
      <point x="61" y="216"/>
      <point x="310" y="233"/>
      <point x="310" y="128" type="curve" smooth="yes"/>
      <point x="310" y="86"/>
      <point x="267" y="46"/>
      <point x="202" y="46" type="curve" smooth="yes"/>
      <point x="160" y="46"/>
      <point x="104" y="64"/>
      <point x="65" y="101" type="curve"/>
      <point x="55" y="98" type="line"/>
      <point x="48" y="28" type="line"/>
      <point x="94" y="5"/>
      <point x="149" y="-5"/>
      <point x="194" y="-5" type="curve" smooth="yes"/>
      <point x="309" y="-5"/>
      <point x="374" y="63"/>
      <point x="374" y="139" type="curve" smooth="yes"/>
      <point x="374" y="286"/>
      <point x="126" y="270"/>
      <point x="126" y="371" type="curve" smooth="yes"/>
      <point x="126" y="408"/>
      <point x="162" y="449"/>
      <point x="230" y="449" type="curve" smooth="yes"/>
      <point x="266" y="449"/>
      <point x="300" y="438"/>
      <point x="337" y="410" type="curve"/>
      <point x="348" y="413" type="line"/>
      <point x="359" y="477" type="line"/>
      <point x="317" y="494"/>
      <point x="273" y="501"/>
      <point x="237" y="501" type="curve" smooth="yes"/>
    </contour>
    <contour>
      <point x="196" y="0" type="move" name="bottom"/>
    </contour>
    <contour>
      <point x="213" y="498" type="move" name="top"/>
    </contour>
  </outline>
</glyph>
<glyph name="slash" format="1">
  <advance width="287"/>
  <unicode hex="002F"/>
  <outline>
    <contour>
      <point x="227" y="678" type="line"/>
      <point x="22" y="-105" type="line"/>
      <point x="28" y="-113" type="line"/>
      <point x="83" y="-113" type="line"/>
      <point x="288" y="669" type="line"/>
      <point x="281" y="678" type="line"/>
    </contour>
  </outline>
</glyph>
<glyph name="three" format="1">
  <advance width="412"/>
  <unicode hex="0033"/>
  <outline>
    <contour>
      <point x="134" y="503"/>
      <point x="82" y="483"/>
      <point x="31" y="441" type="curve"/>
      <point x="43" y="378" type="line"/>
      <point x="52" y="378" type="line"/>
      <point x="95" y="416"/>
      <point x="133" y="437"/>
      <point x="176" y="437" type="curve" smooth="yes"/>
      <point x="229" y="437"/>
      <point x="263" y="407"/>
      <point x="263" y="359" type="curve" smooth="yes"/>
      <point x="263" y="293"/>
      <point x="197" y="246"/>
      <point x="143" y="246" type="curve" smooth="yes"/>
      <point x="99" y="245" type="line"/>
      <point x="97" y="190" type="line"/>
      <point x="102" y="184" type="line"/>
      <point x="161" y="184" type="line"/>
      <point x="244" y="181"/>
      <point x="290" y="144"/>
      <point x="290" y="81" type="curve" smooth="yes"/>
      <point x="290" y="10"/>
      <point x="230" y="-35"/>
      <point x="142" y="-35" type="curve" smooth="yes"/>
      <point x="108" y="-35"/>
      <point x="73" y="-29"/>
      <point x="40" y="-15" type="curve"/>
      <point x="34" y="-20" type="line"/>
      <point x="39" y="-88" type="line"/>
      <point x="69" y="-93"/>
      <point x="106" y="-97"/>
      <point x="138" y="-97" type="curve" smooth="yes"/>
      <point x="273" y="-97"/>
      <point x="365" y="-21"/>
      <point x="365" y="91" type="curve" smooth="yes"/>
      <point x="365" y="159"/>
      <point x="323" y="205"/>
      <point x="243" y="224" type="curve"/>
      <point x="243" y="228" type="line"/>
      <point x="313" y="263"/>
      <point x="344" y="322"/>
      <point x="344" y="376" type="curve" smooth="yes"/>
      <point x="344" y="451"/>
      <point x="282" y="503"/>
      <point x="191" y="503" type="curve" smooth="yes"/>
    </contour>
  </outline>
</glyph>
<glyph name="seven" format="1">
  <advance width="417"/>
  <unicode hex="0037"/>
  <outline>
    <contour>
      <point x="22" y="433" type="line"/>
      <point x="28" y="424" type="line"/>
      <point x="103" y="432" type="line"/>
      <point x="315" y="432" type="line"/>
      <point x="82" y="-71" type="line"/>
      <point x="86" y="-84" type="line"/>
      <point x="151" y="-102" type="line"/>
      <point x="196" y="17" type="line"/>
      <point x="390" y="441" type="line"/>
      <point x="389" y="500" type="line"/>
      <point x="346" y="498" type="line"/>
      <point x="117" y="498" type="line"/>
      <point x="28" y="501" type="line"/>
    </contour>
  </outline>
</glyph>
<glyph name="question" format="1">
  <advance width="331"/>
  <unicode hex="003F"/>
  <outline>
    <contour>
      <point x="75" y="656" type="line"/>
      <point x="60" y="612" type="line"/>
      <point x="66" y="604" type="line"/>
      <point x="200" y="596"/>
      <point x="263" y="557"/>
      <point x="263" y="492" type="curve" smooth="yes"/>
      <point x="263" y="454"/>
      <point x="241" y="421"/>
      <point x="202" y="398" type="curve" smooth="yes"/>
      <point x="106" y="341" type="line"/>
      <point x="101" y="331" type="line"/>
      <point x="109" y="216" type="line"/>
      <point x="116" y="209" type="line"/>
      <point x="172" y="216" type="line"/>
      <point x="166" y="312" type="line"/>
      <point x="168" y="316" type="line"/>
      <point x="251" y="370" type="line" smooth="yes"/>
      <point x="306" y="404"/>
      <point x="335" y="452"/>
      <point x="335" y="504" type="curve" smooth="yes"/>
      <point x="335" y="595"/>
      <point x="245" y="651"/>
      <point x="85" y="661" type="curve"/>
    </contour>
    <component base="period" xOffset="31"/>
  </outline>
</glyph>
<glyph name="at" format="1">
  <advance width="825"/>
  <unicode hex="0040"/>
  <outline>
    <contour>
      <point x="204" y="614"/>
      <point x="36" y="437"/>
      <point x="36" y="187" type="curve"/>
      <point x="36" y="-50"/>
      <point x="203" y="-195"/>
      <point x="453" y="-198" type="curve"/>
      <point x="478" y="-158" type="line"/>
      <point x="475" y="-150" type="line"/>
      <point x="244" y="-150"/>
      <point x="92" y="-21"/>
      <point x="92" y="198" type="curve" smooth="yes"/>
      <point x="92" y="409"/>
      <point x="234" y="559"/>
      <point x="449" y="561" type="curve"/>
      <point x="628" y="564"/>
      <point x="740" y="457"/>
      <point x="740" y="296" type="curve"/>
      <point x="740" y="148"/>
      <point x="652" y="59"/>
      <point x="503" y="52" type="curve"/>
      <point x="455" y="-4" type="line"/>
      <point x="673" y="4"/>
      <point x="794" y="111"/>
      <point x="794" y="299" type="curve"/>
      <point x="794" y="489"/>
      <point x="662" y="614"/>
      <point x="458" y="614" type="curve"/>
    </contour>
    <contour>
      <point x="511" y="433" type="line"/>
      <point x="507" y="357" type="line"/>
      <point x="455" y="-4" type="line"/>
      <point x="531" y="14" type="line"/>
      <point x="535" y="110" type="line"/>
      <point x="585" y="461" type="line"/>
      <point x="576" y="465" type="line"/>
    </contour>
    <contour>
      <point x="380" y="193" type="move"/>
    </contour>
    <contour>
      <point x="301" y="441"/>
      <point x="222" y="290"/>
      <point x="222" y="151" type="curve" smooth="yes"/>
      <point x="222" y="71"/>
      <point x="249" y="21"/>
      <point x="299" y="-8" type="curve"/>
      <point x="313" y="-8" type="line"/>
      <point x="372" y="48"/>
      <point x="427" y="123"/>
      <point x="474" y="203" type="curve"/>
      <point x="494" y="203" type="line"/>
      <point x="509" y="360" type="line"/>
      <point x="429" y="171"/>
      <point x="342" y="75"/>
      <point x="320" y="75" type="curve" smooth="yes"/>
      <point x="307" y="75"/>
      <point x="289" y="95"/>
      <point x="289" y="170" type="curve" smooth="yes"/>
      <point x="289" y="298"/>
      <point x="347" y="404"/>
      <point x="446" y="404" type="curve"/>
      <point x="532" y="373" type="line"/>
      <point x="560" y="431" type="line"/>
      <point x="465" y="465" type="line"/>
      <point x="460" y="465" type="line"/>
    </contour>
  </outline>
</glyph>
<glyph name="A" format="1">
  <advance width="578"/>
  <unicode hex="0041"/>
  <outline>
    <contour>
      <point x="250" y="641" type="line"/>
      <point x="14" y="0" type="line" smooth="yes"/>
      <point x="94" y="0" type="line"/>
      <point x="110" y="68" type="line"/>
      <point x="290" y="558" type="line"/>
      <point x="297" y="558" type="line"/>
      <point x="460" y="64" type="line"/>
      <point x="474" y="0" type="line"/>
      <point x="557" y="0" type="line"/>
      <point x="343" y="641" type="line"/>
    </contour>
    <contour>
      <point x="286" y="240" type="line"/>
      <point x="128" y="243" type="line"/>
      <point x="128" y="174" type="line"/>
      <point x="279" y="177" type="line"/>
      <point x="445" y="174" type="line"/>
      <point x="444" y="243" type="line"/>
    </contour>
    <contour>
      <point x="594" y="10" type="move" name="ogonek"/>
    </contour>
    <contour>
      <point x="290" y="641" type="move" name="top"/>
    </contour>
  </outline>
</glyph>
<glyph name="D" format="1">
  <advance width="646"/>
  <unicode hex="0044"/>
  <outline>
    <contour>
      <point x="94" y="641" type="line"/>
      <point x="161" y="573" type="line"/>
      <point x="190" y="575"/>
      <point x="296" y="578"/>
      <point x="320" y="578" type="curve" smooth="yes"/>
      <point x="456" y="578"/>
      <point x="527" y="496"/>
      <point x="527" y="326" type="curve" smooth="yes"/>
      <point x="527" y="147"/>
      <point x="450" y="61"/>
      <point x="315" y="61" type="curve" smooth="yes"/>
      <point x="290" y="61"/>
      <point x="192" y="64"/>
      <point x="150" y="69" type="curve"/>
      <point x="94" y="0" type="line"/>
      <point x="149" y="-3"/>
      <point x="265" y="-6"/>
      <point x="302" y="-6" type="curve"/>
      <point x="499" y="-6"/>
      <point x="609" y="118"/>
      <point x="609" y="343" type="curve" smooth="yes"/>
      <point x="609" y="538"/>
      <point x="508" y="645"/>
      <point x="325" y="645" type="curve"/>
    </contour>
    <contour>
      <point x="93" y="641" type="line"/>
      <point x="98" y="193" type="line"/>
      <point x="93" y="0" type="line"/>
      <point x="174" y="0" type="line"/>
      <point x="170" y="200" type="line"/>
      <point x="175" y="641" type="line"/>
    </contour>
    <contour>
      <point x="327" y="321" type="move" name="center"/>
    </contour>
    <contour>
      <point x="314" y="641" type="move" name="top"/>
    </contour>
  </outline>
</glyph>
<glyph name="F" format="1">
  <advance width="434"/>
  <unicode hex="0046"/>
  <outline>
    <contour>
      <point x="93" y="641" type="line"/>
      <point x="98" y="193" type="line"/>
      <point x="93" y="0" type="line"/>
      <point x="174" y="0" type="line"/>
      <point x="170" y="200" type="line"/>
      <point x="175" y="641" type="line"/>
    </contour>
    <contour>
      <point x="279" y="347" type="line"/>
      <point x="150" y="349" type="line"/>
      <point x="150" y="283" type="line"/>
      <point x="272" y="284" type="line"/>
      <point x="383" y="281" type="line"/>
      <point x="390" y="342" type="line"/>
      <point x="384" y="350" type="line"/>
    </contour>
    <contour>
      <point x="147" y="641" type="line"/>
      <point x="144" y="579" type="line"/>
      <point x="147" y="572" type="line"/>
      <point x="286" y="574" type="line"/>
      <point x="434" y="569" type="line"/>
      <point x="440" y="633" type="line"/>
      <point x="435" y="641" type="line"/>
    </contour>
  </outline>
</glyph>
<glyph name="H" format="1">
  <advance width="683"/>
  <unicode hex="0048"/>
  <outline>
    <contour>
      <point x="508" y="641" type="line"/>
      <point x="513" y="193" type="line"/>
      <point x="508" y="0" type="line"/>
      <point x="589" y="0" type="line"/>
      <point x="585" y="200" type="line"/>
      <point x="590" y="641" type="line"/>
    </contour>
    <contour>
      <point x="93" y="641" type="line"/>
      <point x="98" y="193" type="line"/>
      <point x="93" y="0" type="line"/>
      <point x="174" y="0" type="line"/>
      <point x="170" y="200" type="line"/>
      <point x="175" y="641" type="line"/>
    </contour>
    <contour>
      <point x="160" y="289" type="line"/>
      <point x="334" y="292" type="line"/>
      <point x="522" y="289" type="line"/>
      <point x="522" y="359" type="line"/>
      <point x="341" y="356" type="line"/>
      <point x="160" y="359" type="line"/>
    </contour>
    <contour>
      <point x="338" y="321" type="move" name="center"/>
    </contour>
    <contour>
      <point x="338" y="641" type="move" name="top"/>
    </contour>
  </outline>
</glyph>
<glyph name="J" format="1">
  <advance width="310"/>
  <unicode hex="004A"/>
  <outline>
    <contour>
      <point x="137" y="641" type="line"/>
      <point x="141" y="204" type="line"/>
      <point x="141" y="117" type="line" smooth="yes"/>
      <point x="141" y="41"/>
      <point x="104" y="1"/>
      <point x="14" y="-47" type="curve"/>
      <point x="14" y="-57" type="line"/>
      <point x="45" y="-102" type="line"/>
      <point x="170" y="-42"/>
      <point x="215" y="17"/>
      <point x="215" y="118" type="curve" smooth="yes"/>
      <point x="213" y="212" type="line"/>
      <point x="218" y="641" type="line"/>
    </contour>
    <contour>
      <point x="11" y="641" type="line"/>
      <point x="6" y="582" type="line"/>
      <point x="14" y="575" type="line"/>
      <point x="152" y="576" type="line"/>
      <point x="151" y="641" type="line"/>
    </contour>
    <contour>
      <point x="133" y="641" type="move" name="top"/>
    </contour>
  </outline>
</glyph>
<glyph name="Q" format="1">
  <advance width="639"/>
  <unicode hex="0051"/>
  <outline>
    <contour>
      <point x="141" y="647"/>
      <point x="38" y="529"/>
      <point x="38" y="315" type="curve" smooth="yes"/>
      <point x="38" y="109"/>
      <point x="135" y="-8"/>
      <point x="312" y="-8" type="curve" smooth="yes"/>
      <point x="494" y="-8"/>
      <point x="598" y="117"/>
      <point x="598" y="330" type="curve" smooth="yes"/>
      <point x="598" y="535"/>
      <point x="501" y="647"/>
      <point x="326" y="647" type="curve"/>
    </contour>
    <contour>
      <point x="324" y="3" type="line"/>
      <point x="429" y="-91"/>
      <point x="557" y="-158"/>
      <point x="689" y="-192" type="curve"/>
      <point x="697" y="-189" type="line"/>
      <point x="711" y="-176"/>
      <point x="720" y="-163"/>
      <point x="733" y="-138" type="curve"/>
      <point x="730" y="-128" type="line"/>
      <point x="598" y="-104"/>
      <point x="481" y="-50"/>
      <point x="379" y="28" type="curve"/>
    </contour>
    <contour>
      <point x="449" y="581"/>
      <point x="515" y="497"/>
      <point x="515" y="323" type="curve" smooth="yes"/>
      <point x="515" y="145"/>
      <point x="445" y="59"/>
      <point x="317" y="59" type="curve" smooth="yes"/>
      <point x="186" y="59"/>
      <point x="120" y="145"/>
      <point x="120" y="322" type="curve" smooth="yes"/>
      <point x="120" y="497"/>
      <point x="185" y="581"/>
      <point x="318" y="581" type="curve" smooth="yes"/>
    </contour>
  </outline>
</glyph>
<glyph name="W" format="1">
  <advance width="893"/>
  <unicode hex="0057"/>
  <outline>
    <contour>
      <point x="809" y="641" type="line"/>
      <point x="794" y="575" type="line"/>
      <point x="620" y="89" type="line"/>
      <point x="614" y="89" type="line"/>
      <point x="456" y="572" type="line"/>
      <point x="440" y="641" type="line"/>
      <point x="358" y="641" type="line"/>
      <point x="413" y="479" type="line"/>
      <point x="275" y="89" type="line"/>
      <point x="268" y="89" type="line"/>
      <point x="112" y="579" type="line"/>
      <point x="100" y="641" type="line"/>
      <point x="21" y="641" type="line"/>
      <point x="225" y="0" type="line"/>
      <point x="308" y="0" type="line"/>
      <point x="440" y="372" type="line"/>
      <point x="447" y="372" type="line"/>
      <point x="572" y="0" type="line"/>
      <point x="655" y="0" type="line"/>
      <point x="884" y="641" type="line"/>
    </contour>
    <contour>
      <point x="439" y="641" type="move" name="top"/>
    </contour>
  </outline>
</glyph>
<glyph name="Y" format="1">
  <advance width="528"/>
  <unicode hex="0059"/>
  <outline>
    <contour>
      <point x="430" y="641" type="line"/>
      <point x="415" y="603" type="line"/>
      <point x="262" y="317" type="line"/>
      <point x="254" y="317" type="line"/>
      <point x="114" y="605" type="line"/>
      <point x="101" y="641" type="line"/>
      <point x="15" y="641" type="line"/>
      <point x="242" y="184" type="line"/>
      <point x="268" y="184" type="line"/>
      <point x="515" y="641" type="line" smooth="yes"/>
    </contour>
    <contour>
      <point x="218" y="272" type="line"/>
      <point x="219" y="187" type="line"/>
      <point x="214" y="0" type="line"/>
      <point x="295" y="0" type="line"/>
      <point x="291" y="187" type="line"/>
      <point x="293" y="272" type="line"/>
    </contour>
    <contour>
      <point x="258" y="641" type="move" name="top"/>
    </contour>
  </outline>
</glyph>
<glyph name="a" format="1">
  <advance width="462"/>
  <unicode hex="0061"/>
  <outline>
    <contour>
      <point x="173" y="466"/>
      <point x="115" y="445"/>
      <point x="59" y="404" type="curve"/>
      <point x="70" y="347" type="line"/>
      <point x="78" y="343" type="line"/>
      <point x="129" y="388"/>
      <point x="174" y="409"/>
      <point x="219" y="409" type="curve" smooth="yes"/>
      <point x="269" y="409"/>
      <point x="298" y="381"/>
      <point x="298" y="328" type="curve"/>
      <point x="297" y="263" type="line"/>
      <point x="135" y="225" type="line" smooth="yes"/>
      <point x="76" y="211"/>
      <point x="42" y="179"/>
      <point x="42" y="118" type="curve" smooth="yes"/>
      <point x="42" y="41"/>
      <point x="94" y="-7"/>
      <point x="184" y="-7" type="curve"/>
      <point x="222" y="7"/>
      <point x="257" y="33"/>
      <point x="291" y="68" type="curve"/>
      <point x="297" y="68" type="line"/>
      <point x="300" y="24"/>
      <point x="325" y="-2"/>
      <point x="367" y="-6" type="curve" smooth="yes"/>
      <point x="386" y="-4"/>
      <point x="407" y="4"/>
      <point x="424" y="14" type="curve"/>
      <point x="431" y="59" type="line"/>
      <point x="423" y="66" type="line"/>
      <point x="408" y="61"/>
      <point x="398" y="60"/>
      <point x="390" y="60" type="curve" smooth="yes"/>
      <point x="366" y="60"/>
      <point x="358" y="70"/>
      <point x="358" y="99" type="curve" smooth="yes"/>
      <point x="358" y="134"/>
      <point x="371" y="311"/>
      <point x="371" y="346" type="curve" smooth="yes"/>
      <point x="371" y="421"/>
      <point x="316" y="466"/>
      <point x="231" y="466" type="curve" smooth="yes"/>
    </contour>
    <contour>
      <point x="293" y="130" type="line"/>
      <point x="256" y="85"/>
      <point x="220" y="59"/>
      <point x="180" y="59" type="curve" smooth="yes"/>
      <point x="140" y="59"/>
      <point x="113" y="85"/>
      <point x="113" y="129" type="curve" smooth="yes"/>
      <point x="113" y="158"/>
      <point x="125" y="170"/>
      <point x="151" y="177" type="curve" smooth="yes"/>
      <point x="296" y="212" type="line"/>
    </contour>
    <contour>
      <point x="426" y="10" type="move" name="ogonek"/>
    </contour>
    <contour>
      <point x="223" y="458" type="move" name="top"/>
    </contour>
  </outline>
</glyph>
<glyph name="b" format="1">
  <advance width="512"/>
  <unicode hex="0062"/>
  <outline>
    <contour>
      <point x="244" y="450"/>
      <point x="211" y="432"/>
      <point x="166" y="395" type="curve"/>
      <point x="150" y="395" type="line"/>
      <point x="151" y="318" type="line"/>
      <point x="200" y="374"/>
      <point x="242" y="398"/>
      <point x="285" y="398" type="curve" smooth="yes"/>
      <point x="355" y="398"/>
      <point x="393" y="338"/>
      <point x="395" y="234" type="curve" smooth="yes"/>
      <point x="397" y="110"/>
      <point x="342" y="50"/>
      <point x="257" y="50" type="curve" smooth="yes"/>
      <point x="209" y="50"/>
      <point x="157" y="76"/>
      <point x="101" y="131" type="curve"/>
      <point x="97" y="45" type="line"/>
      <point x="144" y="13"/>
      <point x="197" y="-8"/>
      <point x="251" y="-8" type="curve" smooth="yes"/>
      <point x="387" y="-8"/>
      <point x="470" y="82"/>
      <point x="470" y="243" type="curve" smooth="yes"/>
      <point x="470" y="381"/>
      <point x="410" y="463"/>
      <point x="293" y="463" type="curve" smooth="yes"/>
    </contour>
    <contour>
      <point x="84" y="695" type="line"/>
      <point x="89" y="192" type="line"/>
      <point x="83" y="-3" type="line"/>
      <point x="97" y="-11" type="line"/>
      <point x="162" y="19" type="line"/>
      <point x="158" y="201" type="line"/>
      <point x="163" y="702" type="line"/>
    </contour>
  </outline>
</glyph>
<glyph name="c" format="1">
  <advance width="385"/>
  <unicode hex="0063"/>
  <outline>
    <contour>
      <point x="118" y="466"/>
      <point x="42" y="373"/>
      <point x="42" y="226" type="curve" smooth="yes"/>
      <point x="42" y="81"/>
      <point x="116" y="-8"/>
      <point x="237" y="-8" type="curve" smooth="yes"/>
      <point x="279" y="-8"/>
      <point x="323" y="3"/>
      <point x="359" y="18" type="curve"/>
      <point x="367" y="85" type="line"/>
      <point x="359" y="90" type="line"/>
      <point x="325" y="69"/>
      <point x="283" y="56"/>
      <point x="246" y="56" type="curve" smooth="yes"/>
      <point x="165" y="56"/>
      <point x="117" y="123"/>
      <point x="117" y="230" type="curve" smooth="yes"/>
      <point x="117" y="338"/>
      <point x="164" y="401"/>
      <point x="242" y="401" type="curve" smooth="yes"/>
      <point x="278" y="401"/>
      <point x="315" y="386"/>
      <point x="345" y="367" type="curve"/>
      <point x="354" y="370" type="line"/>
      <point x="368" y="439" type="line"/>
      <point x="335" y="455"/>
      <point x="287" y="466"/>
      <point x="245" y="466" type="curve" smooth="yes"/>
    </contour>
    <contour>
      <point x="227" y="0" type="move" name="bottom"/>
    </contour>
    <contour>
      <point x="237" y="458" type="move" name="top"/>
    </contour>
  </outline>
</glyph>
<glyph name="d" format="1">
  <advance width="516"/>
  <unicode hex="0064"/>
  <outline>
    <contour>
      <point x="349" y="695" type="line"/>
      <point x="351" y="456" type="line"/>
      <point x="321" y="463"/>
      <point x="292" y="466"/>
      <point x="263" y="466" type="curve" smooth="yes"/>
      <point x="124" y="466"/>
      <point x="41" y="380"/>
      <point x="41" y="228" type="curve" smooth="yes"/>
      <point x="41" y="80"/>
      <point x="113" y="-5"/>
      <point x="246" y="-5" type="curve" smooth="yes"/>
      <point x="287" y="11"/>
      <point x="315" y="30"/>
      <point x="354" y="64" type="curve"/>
      <point x="362" y="64" type="line"/>
      <point x="367" y="24"/>
      <point x="390" y="-2"/>
      <point x="431" y="-6" type="curve" smooth="yes"/>
      <point x="451" y="-4"/>
      <point x="472" y="4"/>
      <point x="488" y="14" type="curve"/>
      <point x="496" y="59" type="line"/>
      <point x="488" y="66" type="line"/>
      <point x="472" y="61"/>
      <point x="463" y="60"/>
      <point x="453" y="60" type="curve" smooth="yes"/>
      <point x="432" y="60"/>
      <point x="426" y="70"/>
      <point x="425" y="98" type="curve" smooth="yes"/>
      <point x="422" y="201" type="line"/>
      <point x="428" y="702" type="line"/>
    </contour>
    <contour>
      <point x="285" y="410"/>
      <point x="316" y="401"/>
      <point x="350" y="385" type="curve"/>
      <point x="353" y="195" type="line"/>
      <point x="351" y="123" type="line"/>
      <point x="311" y="77"/>
      <point x="277" y="62"/>
      <point x="241" y="62" type="curve" smooth="yes"/>
      <point x="164" y="62"/>
      <point x="117" y="124"/>
      <point x="115" y="235" type="curve" smooth="yes"/>
      <point x="113" y="351"/>
      <point x="168" y="410"/>
      <point x="253" y="410" type="curve" smooth="yes"/>
    </contour>
    <contour>
      <point x="259" y="230" type="move" name="center"/>
    </contour>
  </outline>
</glyph>
<glyph name="e" format="1">
  <advance width="452"/>
  <unicode hex="0065"/>
  <outline>
    <contour>
      <point x="126" y="465"/>
      <point x="42" y="374"/>
      <point x="42" y="226" type="curve" smooth="yes"/>
      <point x="42" y="82"/>
      <point x="118" y="-8"/>
      <point x="249" y="-8" type="curve" smooth="yes"/>
      <point x="296" y="-8"/>
      <point x="346" y="7"/>
      <point x="388" y="29" type="curve"/>
      <point x="397" y="96" type="line"/>
      <point x="388" y="101" type="line"/>
      <point x="346" y="72"/>
      <point x="296" y="56"/>
      <point x="254" y="56" type="curve" smooth="yes"/>
      <point x="162" y="56"/>
      <point x="117" y="122"/>
      <point x="117" y="230" type="curve" smooth="yes"/>
      <point x="117" y="343"/>
      <point x="167" y="409"/>
      <point x="250" y="409" type="curve" smooth="yes"/>
      <point x="305" y="409"/>
      <point x="343" y="376"/>
      <point x="343" y="304" type="curve"/>
      <point x="341" y="292" type="line"/>
      <point x="103" y="286" type="line"/>
      <point x="103" y="233" type="line"/>
      <point x="396" y="234" type="line"/>
      <point x="412" y="247" type="line"/>
      <point x="414" y="259"/>
      <point x="415" y="282"/>
      <point x="415" y="293" type="curve" smooth="yes"/>
      <point x="415" y="401"/>
      <point x="356" y="465"/>
      <point x="256" y="465" type="curve" smooth="yes"/>
    </contour>
    <contour>
      <point x="21" y="0" type="move" name="bottom"/>
    </contour>
    <contour>
      <point x="410" y="10" type="move" name="ogonek"/>
    </contour>
    <contour>
      <point x="245" y="458" type="move" name="top"/>
    </contour>
  </outline>
</glyph>
<glyph name="m" format="1">
  <advance width="796"/>
  <unicode hex="006D"/>
  <outline>
    <contour>
      <point x="530" y="453"/>
      <point x="481" y="428"/>
      <point x="437" y="388" type="curve"/>
      <point x="421" y="388" type="line"/>
      <point x="430" y="319" type="line"/>
      <point x="477" y="368"/>
      <point x="526" y="398"/>
      <point x="574" y="398" type="curve" smooth="yes"/>
      <point x="627" y="398"/>
      <point x="653" y="364"/>
      <point x="652" y="311" type="curve" smooth="yes"/>
      <point x="647" y="0" type="line"/>
      <point x="727" y="0" type="line"/>
      <point x="723" y="199" type="line"/>
      <point x="725" y="329" type="line" smooth="yes"/>
      <point x="726" y="415"/>
      <point x="673" y="464"/>
      <point x="572" y="464" type="curve" smooth="yes"/>
    </contour>
    <contour>
      <point x="80" y="453" type="line"/>
      <point x="84" y="194" type="line"/>
      <point x="79" y="0" type="line"/>
      <point x="158" y="0" type="line"/>
      <point x="154" y="201" type="line"/>
      <point x="155" y="460" type="line"/>
    </contour>
    <contour>
      <point x="259" y="162" type="move"/>
    </contour>
    <contour>
      <point x="248" y="454"/>
      <point x="203" y="430"/>
      <point x="161" y="393" type="curve"/>
      <point x="146" y="393" type="line"/>
      <point x="146" y="318" type="line"/>
      <point x="192" y="368"/>
      <point x="241" y="398"/>
      <point x="290" y="398" type="curve" smooth="yes"/>
      <point x="342" y="398"/>
      <point x="369" y="364"/>
      <point x="368" y="311" type="curve" smooth="yes"/>
      <point x="362" y="0" type="line"/>
      <point x="442" y="0" type="line"/>
      <point x="439" y="199" type="line"/>
      <point x="441" y="329" type="line" smooth="yes"/>
      <point x="442" y="415"/>
      <point x="389" y="464"/>
      <point x="288" y="464" type="curve" smooth="yes"/>
    </contour>
  </outline>
</glyph>
<glyph name="o" format="1">
  <advance width="491"/>
  <unicode hex="006F"/>
  <outline>
    <contour>
      <point x="118" y="466"/>
      <point x="42" y="377"/>
      <point x="42" y="223" type="curve" smooth="yes"/>
      <point x="42" y="76"/>
      <point x="114" y="-8"/>
      <point x="239" y="-8" type="curve" smooth="yes"/>
      <point x="371" y="-8"/>
      <point x="447" y="81"/>
      <point x="447" y="235" type="curve" smooth="yes"/>
      <point x="447" y="382"/>
      <point x="375" y="466"/>
      <point x="250" y="466" type="curve" smooth="yes"/>
    </contour>
    <contour>
      <point x="328" y="410"/>
      <point x="373" y="344"/>
      <point x="373" y="217" type="curve" smooth="yes"/>
      <point x="373" y="105"/>
      <point x="328" y="49"/>
      <point x="244" y="49" type="curve" smooth="yes"/>
      <point x="162" y="49"/>
      <point x="117" y="112"/>
      <point x="117" y="241" type="curve" smooth="yes"/>
      <point x="117" y="351"/>
      <point x="162" y="410"/>
      <point x="246" y="410" type="curve" smooth="yes"/>
    </contour>
    <contour>
      <point x="246" y="458" type="move" name="top"/>
    </contour>
  </outline>
</glyph>
<glyph name="p" format="1">
  <advance width="506"/>
  <unicode hex="0070"/>
  <outline>
    <contour>
      <point x="240" y="451"/>
      <point x="207" y="433"/>
      <point x="161" y="395" type="curve"/>
      <point x="145" y="395" type="line"/>
      <point x="146" y="318" type="line"/>
      <point x="195" y="374"/>
      <point x="237" y="398"/>
      <point x="280" y="398" type="curve" smooth="yes"/>
      <point x="350" y="398"/>
      <point x="388" y="338"/>
      <point x="390" y="234" type="curve" smooth="yes"/>
      <point x="392" y="110"/>
      <point x="337" y="50"/>
      <point x="252" y="50" type="curve" smooth="yes"/>
      <point x="204" y="50"/>
      <point x="153" y="70"/>
      <point x="96" y="113" type="curve"/>
      <point x="92" y="17" type="line"/>
      <point x="139" y="2"/>
      <point x="194" y="-8"/>
      <point x="242" y="-8" type="curve" smooth="yes"/>
      <point x="383" y="-8"/>
      <point x="465" y="82"/>
      <point x="465" y="243" type="curve" smooth="yes"/>
      <point x="465" y="381"/>
      <point x="405" y="463"/>
      <point x="288" y="463" type="curve" smooth="yes"/>
    </contour>
    <contour>
      <point x="79" y="453" type="line"/>
      <point x="84" y="194" type="line"/>
      <point x="79" y="-185" type="line"/>
      <point x="157" y="-185" type="line"/>
      <point x="153" y="201" type="line"/>
      <point x="155" y="460" type="line"/>
    </contour>
    <contour>
      <point x="155" y="16" type="line"/>
      <point x="154" y="373" type="line"/>
    </contour>
  </outline>
</glyph>
<glyph name="s" format="1">
  <advance width="370"/>
  <unicode hex="0073"/>
  <outline>
    <contour>
      <point x="105" y="465"/>
      <point x="47" y="409"/>
      <point x="47" y="333" type="curve" smooth="yes"/>
      <point x="47" y="191"/>
      <point x="255" y="210"/>
      <point x="255" y="118" type="curve" smooth="yes"/>
      <point x="255" y="83"/>
      <point x="225" y="49"/>
      <point x="172" y="49" type="curve" smooth="yes"/>
      <point x="135" y="49"/>
      <point x="88" y="66"/>
      <point x="51" y="99" type="curve"/>
      <point x="41" y="93" type="line"/>
      <point x="32" y="25" type="line"/>
      <point x="74" y="3"/>
      <point x="121" y="-8"/>
      <point x="165" y="-8" type="curve" smooth="yes"/>
      <point x="271" y="-8"/>
      <point x="328" y="59"/>
      <point x="328" y="132" type="curve" smooth="yes"/>
      <point x="328" y="270"/>
      <point x="120" y="251"/>
      <point x="120" y="343" type="curve" smooth="yes"/>
      <point x="120" y="377"/>
      <point x="148" y="408"/>
      <point x="195" y="408" type="curve" smooth="yes"/>
      <point x="227" y="408"/>
      <point x="258" y="397"/>
      <point x="292" y="375" type="curve"/>
      <point x="304" y="378" type="line"/>
      <point x="315" y="443" type="line"/>
      <point x="279" y="458"/>
      <point x="240" y="465"/>
      <point x="205" y="465" type="curve" smooth="yes"/>
    </contour>
    <contour>
      <point x="174" y="0" type="move" name="bottom"/>
    </contour>
    <contour>
      <point x="184" y="458" type="move" name="top"/>
    </contour>
  </outline>
</glyph>
<glyph name="v" format="1">
  <advance width="425"/>
  <unicode hex="0076"/>
  <outline>
    <contour>
      <point x="21" y="456" type="line"/>
      <point x="163" y="0" type="line"/>
      <point x="248" y="0" type="line"/>
      <point x="416" y="458" type="line"/>
      <point x="345" y="458" type="line"/>
      <point x="329" y="396" type="line"/>
      <point x="213" y="79" type="line"/>
      <point x="207" y="79" type="line"/>
      <point x="108" y="400" type="line"/>
      <point x="95" y="461" type="line"/>
    </contour>
  </outline>
</glyph>
<glyph name="x" format="1">
  <advance width="435"/>
  <unicode hex="0078"/>
  <outline>
    <contour>
      <point x="24" y="455" type="line"/>
      <point x="170" y="233" type="line"/>
      <point x="23" y="0" type="line"/>
      <point x="96" y="0" type="line"/>
      <point x="116" y="39" type="line"/>
      <point x="213" y="188" type="line"/>
      <point x="311" y="43" type="line"/>
      <point x="333" y="-4" type="line"/>
      <point x="417" y="4" type="line"/>
      <point x="264" y="234" type="line"/>
      <point x="406" y="458" type="line"/>
      <point x="333" y="458" type="line"/>
      <point x="310" y="417" type="line"/>
      <point x="223" y="279" type="line"/>
      <point x="128" y="418" type="line"/>
      <point x="109" y="461" type="line"/>
    </contour>
  </outline>
</glyph>
<glyph name="y" format="1">
  <advance width="426"/>
  <unicode hex="0079"/>
  <outline>
    <contour>
      <point x="9" y="456" type="line"/>
      <point x="178" y="0" type="line"/>
      <point x="136" y="-76"/>
      <point x="81" y="-112"/>
      <point x="-19" y="-131" type="curve"/>
      <point x="-22" y="-141" type="line"/>
      <point x="-13" y="-159"/>
      <point x="-1" y="-175"/>
      <point x="15" y="-191" type="curve"/>
      <point x="24" y="-191" type="line"/>
      <point x="145" y="-160"/>
      <point x="210" y="-102"/>
      <point x="254" y="17" type="curve" smooth="yes"/>
      <point x="416" y="458" type="line"/>
      <point x="343" y="458" type="line"/>
      <point x="328" y="394" type="line"/>
      <point x="218" y="89" type="line"/>
      <point x="211" y="89" type="line"/>
      <point x="102" y="402" type="line"/>
      <point x="87" y="461" type="line"/>
    </contour>
    <contour>
      <point x="216" y="458" type="move" name="top"/>
    </contour>
  </outline>
</glyph>
<glyph name="z" format="1">
  <advance width="412"/>
  <unicode hex="007A"/>
  <outline>
    <contour>
      <point x="41" y="402" type="line"/>
      <point x="46" y="395" type="line"/>
      <point x="118" y="403" type="line"/>
      <point x="290" y="403" type="line"/>
      <point x="33" y="46" type="line"/>
      <point x="34" y="-2" type="line"/>
      <point x="80" y="0" type="line"/>
      <point x="280" y="0" type="line"/>
      <point x="373" y="-2" type="line"/>
      <point x="380" y="56" type="line"/>
      <point x="375" y="63" type="line"/>
      <point x="300" y="56" type="line"/>
      <point x="118" y="56" type="line"/>
      <point x="375" y="411" type="line"/>
      <point x="373" y="459" type="line"/>
      <point x="334" y="458" type="line"/>
      <point x="129" y="458" type="line"/>
      <point x="47" y="460" type="line"/>
    </contour>
    <contour>
      <point x="206" y="458" type="move" name="top"/>
    </contour>
  </outline>
</glyph>
<glyph name="bar" format="1">
  <advance width="314"/>
  <unicode hex="007C"/>
  <outline>
    <contour>
      <point x="126" y="793" type="line"/>
      <point x="125" y="283" type="line"/>
      <point x="125" y="-254" type="line"/>
      <point x="132" y="-262" type="line"/>
      <point x="187" y="-259" type="line"/>
      <point x="187" y="288" type="line"/>
      <point x="188" y="792" type="line"/>
      <point x="182" y="797" type="line"/>
    </contour>
  </outline>
</glyph>
<glyph name="asciitilde" format="1">
  <advance width="480"/>
  <unicode hex="007E"/>
  <outline>
    <contour>
      <point x="181" y="257"/>
      <point x="298" y="214"/>
      <point x="348" y="209" type="curve"/>
      <point x="358" y="211" type="line"/>
      <point x="431" y="285" type="line"/>
      <point x="431" y="294" type="line"/>
      <point x="409" y="321" type="line"/>
      <point x="401" y="321" type="line"/>
      <point x="369" y="291"/>
      <point x="350" y="270"/>
      <point x="333" y="270" type="curve"/>
      <point x="301" y="270"/>
      <point x="182" y="312"/>
      <point x="133" y="319" type="curve"/>
      <point x="123" y="315" type="line"/>
      <point x="50" y="242" type="line"/>
      <point x="50" y="233" type="line"/>
      <point x="72" y="206" type="line"/>
      <point x="81" y="206" type="line"/>
      <point x="111" y="235"/>
      <point x="131" y="257"/>
      <point x="149" y="257" type="curve"/>
    </contour>
  </outline>
</glyph>
<glyph name="yen" format="1">
  <advance width="481"/>
  <unicode hex="00A5"/>
  <outline>
    <contour>
      <point x="24" y="161" type="line"/>
      <point x="21" y="126" type="line"/>
      <point x="25" y="121" type="line"/>
      <point x="460" y="121" type="line"/>
      <point x="463" y="156" type="line"/>
      <point x="459" y="161" type="line"/>
    </contour>
    <contour>
      <point x="24" y="294" type="line"/>
      <point x="21" y="259" type="line"/>
      <point x="25" y="254" type="line"/>
      <point x="194" y="254" type="line"/>
      <point x="186" y="294" type="line"/>
    </contour>
    <contour>
      <point x="291" y="294" type="line"/>
      <point x="284" y="254" type="line"/>
      <point x="461" y="254" type="line"/>
      <point x="465" y="290" type="line"/>
      <point x="460" y="294" type="line"/>
    </contour>
    <contour>
      <point x="390" y="497" type="line"/>
      <point x="376" y="467" type="line"/>
      <point x="244" y="249" type="line"/>
      <point x="238" y="249" type="line"/>
      <point x="116" y="469" type="line"/>
      <point x="106" y="497" type="line"/>
      <point x="35" y="497" type="line"/>
      <point x="227" y="140" type="line"/>
      <point x="250" y="140" type="line"/>
      <point x="459" y="497" type="line" smooth="yes"/>
    </contour>
    <contour>
      <point x="209" y="211" type="line"/>
      <point x="210" y="144" type="line"/>
      <point x="207" y="0" type="line"/>
      <point x="273" y="0" type="line"/>
      <point x="270" y="144" type="line"/>
      <point x="272" y="211" type="line"/>
    </contour>
    <contour>
      <point x="251" y="498" type="move" name="top"/>
    </contour>
  </outline>
</glyph>
<glyph name="logicalnot" format="1">
  <advance width="480"/>
  <unicode hex="00AC"/>
  <outline>
    <contour>
      <point x="34" y="293" type="line"/>
      <point x="29" y="243" type="line"/>
      <point x="35" y="237" type="line"/>
      <point x="368" y="237" type="line"/>
      <point x="368" y="62" type="line"/>
      <point x="375" y="56" type="line"/>
      <point x="425" y="60" type="line"/>
      <point x="425" y="286" type="line"/>
      <point x="419" y="293" type="line"/>
    </contour>
  </outline>
</glyph>
<glyph name="acute" format="1">
  <advance width="389"/>
  <unicode hex="00B4"/>
  <outline>
    <contour>
      <point x="201" y="642"/>
      <point x="149" y="597"/>
      <point x="94" y="552" type="curve"/>
      <point x="116" y="520" type="line"/>
      <point x="125" y="519" type="line"/>
      <point x="182" y="559"/>
      <point x="236" y="600"/>
      <point x="295" y="646" type="curve"/>
      <point x="297" y="654" type="line"/>
      <point x="267" y="696" type="line"/>
      <point x="258" y="697" type="line"/>
    </contour>
    <contour>
      <point x="168" y="458" type="move" name="_top"/>
    </contour>
  </outline>
</glyph>
<glyph name="cedilla" format="1">
  <advance width="389"/>
  <unicode hex="00B8"/>
  <outline>
    <contour>
      <point x="175" y="19" type="line"/>
      <point x="151" y="-71" type="line"/>
      <point x="199" y="-100" type="line" smooth="yes"/>
      <point x="211" y="-107"/>
      <point x="220" y="-113"/>
      <point x="220" y="-125" type="curve" smooth="yes"/>
      <point x="220" y="-142"/>
      <point x="207" y="-152"/>
      <point x="188" y="-152" type="curve" smooth="yes"/>
      <point x="164" y="-152"/>
      <point x="148" y="-140"/>
      <point x="132" y="-121" type="curve"/>
      <point x="127" y="-122" type="line"/>
      <point x="119" y="-162" type="line"/>
      <point x="134" y="-178"/>
      <point x="158" y="-193"/>
      <point x="192" y="-193" type="curve" smooth="yes"/>
      <point x="239" y="-193"/>
      <point x="273" y="-166"/>
      <point x="273" y="-127" type="curve" smooth="yes"/>
      <point x="273" y="-105"/>
      <point x="263" y="-87"/>
      <point x="234" y="-71" type="curve" smooth="yes"/>
      <point x="200" y="-51" type="line"/>
      <point x="221" y="19" type="line"/>
    </contour>
    <contour>
      <point x="190" y="0" type="move" name="_bottom"/>
    </contour>
  </outline>
</glyph>
<glyph name="multiply" format="1">
  <advance width="480"/>
  <unicode hex="00D7"/>
  <outline>
    <contour>
      <point x="240" y="305" type="line"/>
      <point x="115" y="430" type="line"/>
      <point x="77" y="398" type="line"/>
      <point x="77" y="388" type="line"/>
      <point x="201" y="265" type="line"/>
      <point x="77" y="141" type="line"/>
      <point x="77" y="133" type="line"/>
      <point x="115" y="100" type="line"/>
      <point x="240" y="225" type="line"/>
      <point x="365" y="100" type="line"/>
      <point x="404" y="133" type="line"/>
      <point x="404" y="142" type="line"/>
      <point x="280" y="265" type="line"/>
      <point x="404" y="388" type="line"/>
      <point x="404" y="398" type="line"/>
      <point x="365" y="430" type="line"/>
    </contour>
  </outline>
</glyph>
<glyph name="Oslash" format="1">
  <advance width="635"/>
  <unicode hex="00D8"/>
  <outline>
    <contour>
      <point x="471" y="724" type="line"/>
      <point x="97" y="-77" type="line"/>
      <point x="101" y="-85" type="line"/>
      <point x="150" y="-102" type="line"/>
      <point x="524" y="696" type="line"/>
      <point x="519" y="706" type="line"/>
    </contour>
    <component base="O"/>
    <contour>
      <point x="317" y="642" type="move" name="top"/>
    </contour>
  </outline>
</glyph>
<glyph name="ae" format="1">
  <advance width="678"/>
  <unicode hex="00E6"/>
  <outline>
    <contour>
      <point x="318" y="212" type="line"/>
      <point x="639" y="266" type="line"/>
      <point x="647" y="277" type="line"/>
      <point x="626" y="317" type="line"/>
      <point x="318" y="259" type="line"/>
    </contour>
    <contour>
      <point x="318" y="259" type="line"/>
      <point x="132" y="228" type="line" smooth="yes"/>
      <point x="71" y="218"/>
      <point x="39" y="178"/>
      <point x="39" y="119" type="curve" smooth="yes"/>
      <point x="39" y="40"/>
      <point x="95" y="-7"/>
      <point x="186" y="-7" type="curve"/>
      <point x="241" y="12"/>
      <point x="284" y="44"/>
      <point x="322" y="91" type="curve"/>
      <point x="353" y="27"/>
      <point x="410" y="-8"/>
      <point x="485" y="-8" type="curve" smooth="yes"/>
      <point x="529" y="-8"/>
      <point x="579" y="6"/>
      <point x="618" y="29" type="curve"/>
      <point x="627" y="94" type="line"/>
      <point x="618" y="98" type="line"/>
      <point x="581" y="69"/>
      <point x="534" y="52"/>
      <point x="491" y="52" type="curve" smooth="yes"/>
      <point x="401" y="52"/>
      <point x="356" y="117"/>
      <point x="356" y="236" type="curve" smooth="yes"/>
      <point x="356" y="272" type="line" smooth="yes"/>
      <point x="356" y="348"/>
      <point x="409" y="411"/>
      <point x="479" y="411" type="curve" smooth="yes"/>
      <point x="535" y="411"/>
      <point x="575" y="371"/>
      <point x="576" y="300" type="curve"/>
      <point x="648" y="277" type="line"/>
      <point x="652" y="403"/>
      <point x="584" y="465"/>
      <point x="490" y="465" type="curve" smooth="yes"/>
      <point x="432" y="465"/>
      <point x="379" y="441"/>
      <point x="344" y="394" type="curve"/>
      <point x="328" y="436"/>
      <point x="289" y="466"/>
      <point x="224" y="466" type="curve" smooth="yes"/>
      <point x="168" y="466"/>
      <point x="111" y="445"/>
      <point x="56" y="404" type="curve"/>
      <point x="68" y="347" type="line"/>
      <point x="75" y="343" type="line"/>
      <point x="129" y="388"/>
      <point x="174" y="409"/>
      <point x="215" y="409" type="curve" smooth="yes"/>
      <point x="264" y="409"/>
      <point x="292" y="381"/>
      <point x="292" y="328" type="curve" smooth="yes"/>
      <point x="292" y="232" type="line" smooth="yes"/>
      <point x="292" y="196"/>
      <point x="294" y="173"/>
      <point x="300" y="135" type="curve"/>
      <point x="248" y="79"/>
      <point x="218" y="60"/>
      <point x="181" y="60" type="curve" smooth="yes"/>
      <point x="140" y="60"/>
      <point x="110" y="82"/>
      <point x="110" y="127" type="curve" smooth="yes"/>
      <point x="110" y="155"/>
      <point x="123" y="174"/>
      <point x="161" y="181" type="curve" smooth="yes"/>
      <point x="318" y="212" type="line"/>
    </contour>
    <contour>
      <point x="343" y="458" type="move" name="top"/>
    </contour>
  </outline>
</glyph>
<glyph name="eth" format="1">
  <advance width="489"/>
  <unicode hex="00F0"/>
  <outline>
    <contour>
      <point x="114" y="706" type="line"/>
      <point x="69" y="670" type="line"/>
      <point x="69" y="660" type="line"/>
      <point x="277" y="574"/>
      <point x="375" y="441"/>
      <point x="375" y="241" type="curve" smooth="yes"/>
      <point x="375" y="110"/>
      <point x="333" y="46"/>
      <point x="246" y="46" type="curve" smooth="yes"/>
      <point x="162" y="46"/>
      <point x="111" y="106"/>
      <point x="111" y="224" type="curve" smooth="yes"/>
      <point x="111" y="341"/>
      <point x="161" y="405"/>
      <point x="250" y="405" type="curve" smooth="yes"/>
      <point x="298" y="405"/>
      <point x="337" y="387"/>
      <point x="370" y="351" type="curve"/>
      <point x="398" y="397" type="line"/>
      <point x="355" y="440"/>
      <point x="308" y="459"/>
      <point x="246" y="459" type="curve" smooth="yes"/>
      <point x="117" y="459"/>
      <point x="43" y="371"/>
      <point x="43" y="224" type="curve" smooth="yes"/>
      <point x="43" y="76"/>
      <point x="119" y="-8"/>
      <point x="241" y="-8" type="curve" smooth="yes"/>
      <point x="371" y="-8"/>
      <point x="443" y="85"/>
      <point x="443" y="246" type="curve" smooth="yes"/>
      <point x="443" y="448"/>
      <point x="330" y="614"/>
      <point x="120" y="706" type="curve"/>
    </contour>
    <contour>
      <point x="92" y="540" type="line"/>
      <point x="109" y="502" type="line"/>
      <point x="116" y="499" type="line"/>
      <point x="400" y="642" type="line"/>
      <point x="383" y="680" type="line"/>
      <point x="375" y="683" type="line"/>
    </contour>
  </outline>
</glyph>
<glyph name="aogonek" format="1">
  <advance width="462"/>
  <unicode hex="0105"/>
  <outline>
    <contour>
      <point x="377" y="17" type="line"/>
      <point x="302" y="-61"/>
      <point x="282" y="-91"/>
      <point x="282" y="-125" type="curve" smooth="yes"/>
      <point x="282" y="-170"/>
      <point x="315" y="-197"/>
      <point x="355" y="-197" type="curve" smooth="yes"/>
      <point x="389" y="-197"/>
      <point x="417" y="-177"/>
      <point x="444" y="-148" type="curve"/>
      <point x="430" y="-107" type="line"/>
      <point x="426" y="-107" type="line"/>
      <point x="407" y="-131"/>
      <point x="387" y="-142"/>
      <point x="367" y="-142" type="curve" smooth="yes"/>
      <point x="349" y="-142"/>
      <point x="336" y="-134"/>
      <point x="336" y="-113" type="curve" smooth="yes"/>
      <point x="336" y="-91"/>
      <point x="352" y="-66"/>
      <point x="424" y="14" type="curve"/>
    </contour>
    <component base="a"/>
  </outline>
</glyph>
<glyph name="dcroat" format="1">
  <advance width="520"/>
  <unicode hex="0111"/>
  <outline>
    <contour>
      <point x="225" y="605" type="line"/>
      <point x="220" y="562" type="line"/>
      <point x="226" y="556" type="line"/>
      <point x="500" y="556" type="line"/>
      <point x="505" y="598" type="line"/>
      <point x="498" y="605" type="line"/>
    </contour>
    <component base="d"/>
  </outline>
</glyph>
<glyph name="hbar" format="1">
  <advance width="514"/>
  <unicode hex="0127"/>
  <outline>
    <contour>
      <point x="9" y="605" type="line"/>
      <point x="5" y="562" type="line"/>
      <point x="11" y="556" type="line"/>
      <point x="285" y="556" type="line"/>
      <point x="289" y="598" type="line"/>
      <point x="282" y="605" type="line"/>
    </contour>
    <component base="h" xOffset="-5"/>
  </outline>
</glyph>
<glyph name="dotlessi" format="1">
  <advance width="238"/>
  <unicode hex="0131"/>
  <outline>
    <contour>
      <point x="80" y="453" type="line"/>
      <point x="84" y="194" type="line"/>
      <point x="79" y="0" type="line"/>
      <point x="158" y="0" type="line"/>
      <point x="153" y="201" type="line"/>
      <point x="159" y="460" type="line"/>
    </contour>
    <contour>
      <point x="118" y="0" type="move" name="bottom"/>
    </contour>
    <contour>
      <point x="181" y="36" type="move" name="ogonek"/>
    </contour>
    <contour>
      <point x="120" y="458" type="move" name="top"/>
    </contour>
  </outline>
</glyph>
<glyph name="kgreenlandic" format="1">
  <advance width="456"/>
  <unicode hex="0138"/>
  <outline>
    <contour>
      <point x="346" y="458" type="line"/>
      <point x="319" y="417" type="line"/>
      <point x="176" y="248" type="line"/>
      <point x="176" y="241" type="line"/>
      <point x="235" y="156"/>
      <point x="299" y="74"/>
      <point x="366" y="-5" type="curve"/>
      <point x="376" y="-9" type="line"/>
      <point x="400" y="-5"/>
      <point x="424" y="-2"/>
      <point x="447" y="5" type="curve"/>
      <point x="447" y="14" type="line"/>
      <point x="382" y="89"/>
      <point x="315" y="168"/>
      <point x="255" y="248" type="curve"/>
      <point x="435" y="458" type="line"/>
    </contour>
    <component base="dotlessi"/>
    <contour>
      <point x="253" y="0" type="move" name="bottom"/>
    </contour>
  </outline>
</glyph>
<glyph name="lcaron" format="1">
  <advance width="257"/>
  <unicode hex="013E"/>
  <outline>
    <contour>
      <point x="196" y="136" type="move"/>
    </contour>
    <component base="l"/>
    <component base="caron.alt" xOffset="60" yOffset="-40"/>
  </outline>
</glyph>
<glyph name="eng" format="1">
  <advance width="527"/>
  <unicode hex="014B"/>
  <outline>
    <contour>
      <point x="248" y="454"/>
      <point x="203" y="430"/>
      <point x="161" y="393" type="curve"/>
      <point x="146" y="393" type="line"/>
      <point x="146" y="318" type="line"/>
      <point x="192" y="368"/>
      <point x="241" y="398"/>
      <point x="290" y="398" type="curve" smooth="yes"/>
      <point x="342" y="398"/>
      <point x="368" y="364"/>
      <point x="368" y="311" type="curve" smooth="yes"/>
      <point x="369" y="15" type="line" smooth="yes"/>
      <point x="369" y="-66"/>
      <point x="345" y="-107"/>
      <point x="275" y="-149" type="curve"/>
      <point x="275" y="-158" type="line"/>
      <point x="305" y="-194" type="line"/>
      <point x="406" y="-141"/>
      <point x="444" y="-86"/>
      <point x="444" y="19" type="curve" smooth="yes"/>
      <point x="439" y="200" type="line"/>
      <point x="441" y="329" type="line" smooth="yes"/>
      <point x="442" y="415"/>
      <point x="389" y="464"/>
      <point x="288" y="464" type="curve" smooth="yes"/>
    </contour>
    <contour>
      <point x="80" y="453" type="line"/>
      <point x="84" y="194" type="line"/>
      <point x="79" y="0" type="line"/>
      <point x="158" y="0" type="line"/>
      <point x="154" y="201" type="line"/>
      <point x="155" y="460" type="line"/>
    </contour>
  </outline>
</glyph>
<glyph name="OE" format="1">
  <advance width="851"/>
  <unicode hex="0152"/>
  <outline>
    <contour>
      <point x="154" y="653"/>
      <point x="38" y="529"/>
      <point x="38" y="316" type="curve" smooth="yes"/>
      <point x="38" y="109"/>
      <point x="148" y="-12"/>
      <point x="340" y="-12" type="curve" smooth="yes"/>
      <point x="401" y="-12"/>
      <point x="465" y="1"/>
      <point x="524" y="0" type="curve" smooth="yes"/>
      <point x="821" y="0" type="line"/>
      <point x="828" y="62" type="line"/>
      <point x="822" y="70" type="line"/>
      <point x="665" y="66" type="line"/>
      <point x="540" y="67" type="line"/>
      <point x="539" y="195" type="line"/>
      <point x="539" y="295" type="line"/>
      <point x="649" y="296" type="line"/>
      <point x="766" y="294" type="line"/>
      <point x="773" y="356" type="line"/>
      <point x="768" y="363" type="line"/>
      <point x="655" y="360" type="line"/>
      <point x="541" y="362" type="line"/>
      <point x="542" y="574" type="line"/>
      <point x="677" y="574" type="line"/>
      <point x="821" y="571" type="line"/>
      <point x="827" y="633" type="line"/>
      <point x="822" y="641" type="line"/>
      <point x="524" y="641" type="line" smooth="yes"/>
      <point x="468" y="641"/>
      <point x="417" y="653"/>
      <point x="355" y="653" type="curve" smooth="yes"/>
    </contour>
    <contour>
      <point x="391" y="586"/>
      <point x="435" y="579"/>
      <point x="449" y="573" type="curve" smooth="yes"/>
      <point x="459" y="570"/>
      <point x="463" y="561"/>
      <point x="463" y="536" type="curve" smooth="yes"/>
      <point x="467" y="99" type="line" smooth="yes"/>
      <point x="467" y="79"/>
      <point x="460" y="70"/>
      <point x="442" y="64" type="curve" smooth="yes"/>
      <point x="427" y="60"/>
      <point x="385" y="54"/>
      <point x="348" y="54" type="curve" smooth="yes"/>
      <point x="194" y="54"/>
      <point x="120" y="145"/>
      <point x="120" y="321" type="curve" smooth="yes"/>
      <point x="120" y="496"/>
      <point x="198" y="586"/>
      <point x="349" y="586" type="curve" smooth="yes"/>
    </contour>
    <contour>
      <point x="562" y="641" type="move" name="top"/>
    </contour>
  </outline>
</glyph>
<glyph name="Tbar" format="1">
  <advance width="490"/>
  <unicode hex="0166"/>
  <outline>
    <contour>
      <point x="112" y="345" type="line"/>
      <point x="108" y="301" type="line"/>
      <point x="114" y="295" type="line"/>
      <point x="391" y="295" type="line"/>
      <point x="395" y="340" type="line"/>
      <point x="388" y="345" type="line"/>
    </contour>
    <component base="T"/>
  </outline>
</glyph>
<glyph name="tbar" format="1">
  <advance width="323"/>
  <unicode hex="0167"/>
  <outline>
    <contour>
      <point x="31" y="290" type="line"/>
      <point x="27" y="246" type="line"/>
      <point x="33" y="240" type="line"/>
      <point x="292" y="240" type="line"/>
      <point x="296" y="285" type="line"/>
      <point x="289" y="290" type="line"/>
    </contour>
    <component base="t" xOffset="2"/>
  </outline>
</glyph>
<glyph name="Uogonek" format="1">
  <advance width="626"/>
  <unicode hex="0172"/>
  <outline>
    <contour>
      <point x="426" y="55" type="line"/>
      <point x="357" y="-51" type="line" smooth="yes"/>
      <point x="341" y="-75"/>
      <point x="335" y="-97"/>
      <point x="335" y="-117" type="curve" smooth="yes"/>
      <point x="335" y="-165"/>
      <point x="366" y="-197"/>
      <point x="413" y="-197" type="curve" smooth="yes"/>
      <point x="449" y="-197"/>
      <point x="481" y="-178"/>
      <point x="512" y="-144" type="curve"/>
      <point x="500" y="-106" type="line"/>
      <point x="496" y="-106" type="line"/>
      <point x="472" y="-132"/>
      <point x="446" y="-144"/>
      <point x="423" y="-144" type="curve" smooth="yes"/>
      <point x="398" y="-144"/>
      <point x="386" y="-131"/>
      <point x="386" y="-110" type="curve" smooth="yes"/>
      <point x="386" y="-96"/>
      <point x="392" y="-77"/>
      <point x="403" y="-60" type="curve" smooth="yes"/>
      <point x="474" y="55" type="line"/>
    </contour>
    <component base="U"/>
  </outline>
</glyph>
<glyph name="uogonek" format="1">
  <advance width="512"/>
  <unicode hex="0173"/>
  <outline>
    <contour>
      <point x="432" y="17" type="line"/>
      <point x="357" y="-61"/>
      <point x="337" y="-91"/>
      <point x="337" y="-125" type="curve" smooth="yes"/>
      <point x="337" y="-170"/>
      <point x="370" y="-197"/>
      <point x="410" y="-197" type="curve" smooth="yes"/>
      <point x="444" y="-197"/>
      <point x="472" y="-177"/>
      <point x="499" y="-148" type="curve"/>
      <point x="485" y="-107" type="line"/>
      <point x="481" y="-107" type="line"/>
      <point x="462" y="-131"/>
      <point x="442" y="-142"/>
      <point x="422" y="-142" type="curve" smooth="yes"/>
      <point x="404" y="-142"/>
      <point x="391" y="-134"/>
      <point x="391" y="-113" type="curve" smooth="yes"/>
      <point x="391" y="-91"/>
      <point x="407" y="-66"/>
      <point x="479" y="14" type="curve"/>
    </contour>
    <component base="u"/>
  </outline>
</glyph>
<glyph name="Ohorn" format="1">
  <advance width="640"/>
  <unicode hex="01A0"/>
  <outline>
    <contour>
      <point x="564" y="765"/>
      <point x="549" y="758"/>
      <point x="537" y="749" type="curve"/>
      <point x="535" y="741" type="line"/>
      <point x="556" y="721"/>
      <point x="567" y="696"/>
      <point x="567" y="673" type="curve" smooth="yes"/>
      <point x="567" y="634"/>
      <point x="534" y="613"/>
      <point x="496" y="613" type="curve" smooth="yes"/>
      <point x="449" y="613"/>
      <point x="414" y="647"/>
      <point x="322" y="647" type="curve" smooth="yes"/>
      <point x="143" y="647"/>
      <point x="38" y="529"/>
      <point x="38" y="315" type="curve" smooth="yes"/>
      <point x="38" y="109"/>
      <point x="136" y="-8"/>
      <point x="311" y="-8" type="curve" smooth="yes"/>
      <point x="494" y="-8"/>
      <point x="598" y="118"/>
      <point x="598" y="329" type="curve" smooth="yes"/>
      <point x="598" y="438"/>
      <point x="570" y="519"/>
      <point x="514" y="573" type="curve"/>
      <point x="580" y="577"/>
      <point x="631" y="614"/>
      <point x="631" y="679" type="curve" smooth="yes"/>
      <point x="631" y="728"/>
      <point x="601" y="765"/>
      <point x="576" y="765" type="curve" smooth="yes"/>
    </contour>
    <contour>
      <point x="450" y="581"/>
      <point x="515" y="497"/>
      <point x="515" y="319" type="curve" smooth="yes"/>
      <point x="515" y="144"/>
      <point x="447" y="59"/>
      <point x="315" y="59" type="curve" smooth="yes"/>
      <point x="185" y="59"/>
      <point x="120" y="145"/>
      <point x="120" y="325" type="curve" smooth="yes"/>
      <point x="120" y="497"/>
      <point x="186" y="581"/>
      <point x="319" y="581" type="curve" smooth="yes"/>
    </contour>
    <contour>
      <point x="319" y="641" type="move" name="top"/>
    </contour>
  </outline>
</glyph>
<glyph name="Aringacute" format="1">
  <advance width="578"/>
  <unicode hex="01FA"/>
  <outline>
    <contour>
      <point x="254" y="639" type="line"/>
      <point x="14" y="0" type="line" smooth="yes"/>
      <point x="94" y="0" type="line"/>
      <point x="110" y="67" type="line"/>
      <point x="290" y="553" type="line"/>
      <point x="297" y="553" type="line"/>
      <point x="460" y="63" type="line"/>
      <point x="474" y="0" type="line"/>
      <point x="557" y="0" type="line"/>
      <point x="337" y="639" type="line"/>
    </contour>
    <contour>
      <point x="286" y="238" type="line"/>
      <point x="128" y="241" type="line"/>
      <point x="128" y="172" type="line"/>
      <point x="279" y="175" type="line"/>
      <point x="445" y="172" type="line"/>
      <point x="444" y="241" type="line"/>
    </contour>
    <contour>
      <point x="297" y="294" type="move"/>
    </contour>
    <component base="ringacute" xOffset="102" yOffset="90"/>
  </outline>
</glyph>
<glyph name="dotlessj" format="1">
  <advance width="265"/>
  <unicode hex="0237"/>
  <outline>
    <contour>
      <point x="104" y="457" type="line"/>
      <point x="10" y="457" type="line"/>
      <point x="5" y="411" type="line"/>
      <point x="11" y="404" type="line"/>
      <point x="103" y="404" type="line"/>
      <point x="107" y="194" type="line"/>
      <point x="105" y="15" type="line"/>
      <point x="105" y="-66"/>
      <point x="81" y="-107"/>
      <point x="11" y="-149" type="curve"/>
      <point x="11" y="-158" type="line"/>
      <point x="41" y="-194" type="line"/>
      <point x="142" y="-141"/>
      <point x="179" y="-86"/>
      <point x="179" y="19" type="curve"/>
      <point x="175" y="201" type="line"/>
      <point x="181" y="458" type="line"/>
      <point x="178" y="460" type="line"/>
    </contour>
    <contour>
      <point x="126" y="458" type="move" name="top"/>
    </contour>
  </outline>
</glyph>
<glyph name="hungarumlaut" format="1">
  <advance width="389"/>
  <unicode hex="02DD"/>
  <outline>
    <contour>
      <point x="201" y="519" type="line"/>
      <point x="210" y="520" type="line"/>
      <point x="259" y="566"/>
      <point x="307" y="613"/>
      <point x="354" y="663" type="curve"/>
      <point x="354" y="671" type="line"/>
      <point x="318" y="698" type="line"/>
      <point x="310" y="697" type="line"/>
      <point x="267" y="645"/>
      <point x="222" y="593"/>
      <point x="175" y="543" type="curve"/>
    </contour>
    <contour>
      <point x="60" y="519" type="line"/>
      <point x="69" y="520" type="line"/>
      <point x="118" y="566"/>
      <point x="166" y="613"/>
      <point x="213" y="663" type="curve"/>
      <point x="213" y="671" type="line"/>
      <point x="177" y="698" type="line"/>
      <point x="169" y="697" type="line"/>
      <point x="126" y="645"/>
      <point x="81" y="593"/>
      <point x="34" y="543" type="curve"/>
    </contour>
    <contour>
      <point x="158" y="458" type="move" name="_top"/>
    </contour>
  </outline>
</glyph>
<glyph name="tildecomb" format="1">
  <advance width="389"/>
  <unicode hex="0303"/>
  <outline>
    <contour>
      <point x="320" y="667" type="line"/>
      <point x="294" y="642"/>
      <point x="278" y="621"/>
      <point x="263" y="621" type="curve"/>
      <point x="238" y="621"/>
      <point x="150" y="653"/>
      <point x="109" y="658" type="curve"/>
      <point x="99" y="654" type="line"/>
      <point x="37" y="585" type="line"/>
      <point x="37" y="578" type="line"/>
      <point x="61" y="552" type="line"/>
      <point x="70" y="552" type="line"/>
      <point x="95" y="577"/>
      <point x="111" y="599"/>
      <point x="127" y="599" type="curve"/>
      <point x="152" y="599"/>
      <point x="239" y="566"/>
      <point x="281" y="561" type="curve"/>
      <point x="290" y="564" type="line"/>
      <point x="352" y="634" type="line"/>
      <point x="352" y="642" type="line"/>
      <point x="328" y="667" type="line"/>
    </contour>
    <contour>
      <point x="195" y="458" type="move" name="_top"/>
    </contour>
  </outline>
</glyph>
<glyph name="commaaccentcomb" format="1">
  <advance width="238"/>
  <unicode hex="0326"/>
  <outline>
    <component base="comma" xOffset="5" yOffset="-137" xScale="0.93" yScale="0.93"/>
    <contour>
      <point x="105" y="0" type="move" name="_bottom"/>
    </contour>
  </outline>
</glyph>
<glyph name="mu" format="1">
  <advance width="511"/>
  <unicode hex="03BC"/>
  <outline>
    <contour>
      <point x="348" y="453" type="line"/>
      <point x="348" y="122" type="line"/>
      <point x="308" y="83"/>
      <point x="268" y="61"/>
      <point x="226" y="61" type="curve" smooth="yes"/>
      <point x="175" y="61"/>
      <point x="146" y="94"/>
      <point x="147" y="148" type="curve"/>
      <point x="93" y="129" type="line"/>
      <point x="92" y="43"/>
      <point x="136" y="-6"/>
      <point x="216" y="-6" type="curve" smooth="yes"/>
      <point x="264" y="3"/>
      <point x="305" y="25"/>
      <point x="345" y="60" type="curve"/>
      <point x="353" y="60" type="line"/>
      <point x="362" y="14"/>
      <point x="384" y="-5"/>
      <point x="421" y="-5" type="curve" smooth="yes"/>
      <point x="442" y="-5"/>
      <point x="463" y="2"/>
      <point x="479" y="14" type="curve"/>
      <point x="489" y="59" type="line"/>
      <point x="481" y="65" type="line"/>
      <point x="470" y="58"/>
      <point x="457" y="53"/>
      <point x="447" y="53" type="curve" smooth="yes"/>
      <point x="428" y="53"/>
      <point x="418" y="69"/>
      <point x="419" y="103" type="curve" smooth="yes"/>
      <point x="424" y="460" type="line"/>
    </contour>
    <contour>
      <point x="73" y="453" type="line"/>
      <point x="76" y="194" type="line"/>
      <point x="73" y="-185" type="line"/>
      <point x="148" y="-185" type="line"/>
      <point x="148" y="201" type="line"/>
      <point x="148" y="460" type="line"/>
    </contour>
  </outline>
</glyph>
<glyph name="uni1E9E" format="1">
  <advance width="631"/>
  <unicode hex="1E9E"/>
  <outline>
    <contour>
      <point x="167" y="646"/>
      <point x="73" y="557"/>
      <point x="75" y="424" type="curve" smooth="yes"/>
      <point x="77" y="190" type="line"/>
      <point x="72" y="0" type="line"/>
      <point x="153" y="0" type="line"/>
      <point x="149" y="201" type="line"/>
      <point x="151" y="424" type="line" smooth="yes"/>
      <point x="152" y="521"/>
      <point x="212" y="580"/>
      <point x="318" y="580" type="curve" smooth="yes"/>
      <point x="362" y="580"/>
      <point x="407" y="570"/>
      <point x="458" y="546" type="curve"/>
      <point x="291" y="337" type="line"/>
      <point x="296" y="320" type="line"/>
      <point x="453" y="278"/>
      <point x="521" y="237"/>
      <point x="521" y="163" type="curve" smooth="yes"/>
      <point x="521" y="103"/>
      <point x="476" y="58"/>
      <point x="409" y="58" type="curve" smooth="yes"/>
      <point x="359" y="58"/>
      <point x="301" y="83"/>
      <point x="255" y="125" type="curve"/>
      <point x="245" y="120" type="line"/>
      <point x="235" y="38" type="line"/>
      <point x="286" y="8"/>
      <point x="348" y="-7"/>
      <point x="402" y="-7" type="curve" smooth="yes"/>
      <point x="512" y="-7"/>
      <point x="600" y="59"/>
      <point x="600" y="171" type="curve" smooth="yes"/>
      <point x="600" y="274"/>
      <point x="526" y="323"/>
      <point x="392" y="364" type="curve"/>
      <point x="558" y="568" type="line"/>
      <point x="555" y="584" type="line"/>
      <point x="477" y="621"/>
      <point x="401" y="646"/>
      <point x="320" y="646" type="curve" smooth="yes"/>
    </contour>
  </outline>
</glyph>
<glyph name="adotbelow" format="1">
  <advance width="462"/>
  <unicode hex="1EA1"/>
  <outline>
    <component base="a"/>
    <component base="dotbelowcomb" xOffset="106"/>
    <contour>
      <point x="223" y="458" type="move" name="top"/>
    </contour>
  </outline>
</glyph>
<glyph name="endash" format="1">
  <advance width="478"/>
  <unicode hex="2013"/>
  <outline>
    <contour>
      <point x="-10" y="284" type="line"/>
      <point x="-15" y="234" type="line"/>
      <point x="-9" y="228" type="line"/>
      <point x="490" y="228" type="line"/>
      <point x="493" y="277" type="line"/>
      <point x="488" y="284" type="line"/>
    </contour>
  </outline>
</glyph>
<glyph name="quoteright" format="1">
  <advance width="167"/>
  <unicode hex="2019"/>
  <outline>
    <contour>
      <point x="66" y="632"/>
      <point x="49" y="620"/>
      <point x="36" y="608" type="curve"/>
      <point x="36" y="600" type="line"/>
      <point x="64" y="589"/>
      <point x="75" y="570"/>
      <point x="75" y="545" type="curve" smooth="yes"/>
      <point x="75" y="520"/>
      <point x="62" y="492"/>
      <point x="33" y="461" type="curve"/>
      <point x="34" y="454" type="line"/>
      <point x="64" y="433" type="line"/>
      <point x="114" y="482"/>
      <point x="137" y="526"/>
      <point x="137" y="567" type="curve" smooth="yes"/>
      <point x="137" y="603"/>
      <point x="120" y="628"/>
      <point x="84" y="642" type="curve"/>
    </contour>
  </outline>
</glyph>
<glyph name="franc" format="1">
  <advance width="391"/>
  <unicode hex="20A3"/>
  <outline>
    <contour>
      <point x="90" y="497" type="line"/>
      <point x="92" y="150" type="line"/>
      <point x="90" y="0" type="line"/>
      <point x="155" y="0" type="line"/>
      <point x="152" y="156" type="line"/>
      <point x="156" y="497" type="line"/>
    </contour>
    <contour>
      <point x="26" y="139" type="line"/>
      <point x="23" y="104" type="line"/>
      <point x="27" y="100" type="line"/>
      <point x="271" y="100" type="line"/>
      <point x="273" y="135" type="line"/>
      <point x="270" y="139" type="line"/>
    </contour>
    <contour>
      <point x="247" y="273" type="line"/>
      <point x="138" y="273" type="line"/>
      <point x="134" y="226" type="line"/>
      <point x="138" y="221" type="line"/>
      <point x="241" y="221" type="line"/>
      <point x="336" y="221" type="line"/>
      <point x="341" y="267" type="line"/>
      <point x="337" y="274" type="line"/>
    </contour>
    <contour>
      <point x="133" y="497" type="line"/>
      <point x="131" y="450" type="line"/>
      <point x="133" y="446" type="line"/>
      <point x="255" y="446" type="line"/>
      <point x="379" y="444" type="line"/>
      <point x="386" y="491" type="line"/>
      <point x="380" y="497" type="line"/>
    </contour>
  </outline>
</glyph>
<glyph name="Euro" format="1">
  <advance width="485"/>
  <unicode hex="20AC"/>
  <outline>
    <contour>
      <point x="188" y="501"/>
      <point x="109" y="430"/>
      <point x="91" y="302" type="curve"/>
      <point x="159" y="302" type="line"/>
      <point x="172" y="397"/>
      <point x="225" y="447"/>
      <point x="314" y="447" type="curve" smooth="yes"/>
      <point x="355" y="447"/>
      <point x="399" y="434"/>
      <point x="432" y="410" type="curve"/>
      <point x="439" y="412" type="line"/>
      <point x="451" y="465" type="line"/>
      <point x="413" y="488"/>
      <point x="365" y="501"/>
      <point x="318" y="501" type="curve" smooth="yes"/>
    </contour>
    <contour>
      <point x="91" y="302" type="line"/>
      <point x="88" y="282"/>
      <point x="87" y="263"/>
      <point x="87" y="242" type="curve" smooth="yes"/>
      <point x="87" y="219"/>
      <point x="89" y="198"/>
      <point x="91" y="179" type="curve"/>
      <point x="160" y="179" type="line"/>
      <point x="156" y="199"/>
      <point x="155" y="222"/>
      <point x="155" y="247" type="curve" smooth="yes"/>
      <point x="155" y="267"/>
      <point x="156" y="285"/>
      <point x="158" y="302" type="curve"/>
    </contour>
    <contour>
      <point x="91" y="179" type="line"/>
      <point x="109" y="60"/>
      <point x="182" y="-6"/>
      <point x="305" y="-6" type="curve" smooth="yes"/>
      <point x="350" y="-6"/>
      <point x="398" y="8"/>
      <point x="441" y="33" type="curve"/>
      <point x="446" y="85" type="line"/>
      <point x="437" y="90" type="line"/>
      <point x="401" y="64"/>
      <point x="351" y="50"/>
      <point x="309" y="50" type="curve" smooth="yes"/>
      <point x="227" y="50"/>
      <point x="177" y="95"/>
      <point x="160" y="179" type="curve"/>
    </contour>
    <contour>
      <point x="20" y="322" type="line"/>
      <point x="16" y="280" type="line"/>
      <point x="20" y="275" type="line"/>
      <point x="349" y="275" type="line"/>
      <point x="353" y="317" type="line"/>
      <point x="348" y="322" type="line"/>
    </contour>
    <contour>
      <point x="20" y="208" type="line"/>
      <point x="16" y="166" type="line"/>
      <point x="20" y="161" type="line"/>
      <point x="349" y="161" type="line"/>
      <point x="353" y="203" type="line"/>
      <point x="348" y="208" type="line"/>
    </contour>
  </outline>
</glyph>
<glyph name="summation" format="1">
  <advance width="487"/>
  <unicode hex="2211"/>
  <outline>
    <contour>
      <point x="361" y="641" type="line"/>
      <point x="116" y="641" type="line"/>
      <point x="35" y="641" type="line"/>
      <point x="35" y="580" type="line"/>
      <point x="241" y="324" type="line"/>
      <point x="32" y="56" type="line"/>
      <point x="32" y="-1" type="line"/>
      <point x="111" y="0" type="line"/>
      <point x="338" y="0" type="line"/>
      <point x="461" y="-1" type="line"/>
      <point x="468" y="62" type="line"/>
      <point x="461" y="70" type="line"/>
      <point x="355" y="65" type="line"/>
      <point x="129" y="65" type="line"/>
      <point x="329" y="316" type="line"/>
      <point x="329" y="331" type="line"/>
      <point x="131" y="575" type="line"/>
      <point x="367" y="575" type="line"/>
      <point x="463" y="570" type="line"/>
      <point x="469" y="634" type="line"/>
      <point x="463" y="642" type="line"/>
    </contour>
  </outline>
</glyph>
<glyph name="minus" format="1">
  <advance width="480"/>
  <unicode hex="2212"/>
  <outline>
    <contour>
      <point x="36" y="293" type="line"/>
      <point x="31" y="243" type="line"/>
      <point x="37" y="237" type="line"/>
      <point x="445" y="237" type="line"/>
      <point x="449" y="287" type="line"/>
      <point x="443" y="293" type="line"/>
    </contour>
  </outline>
</glyph>
<glyph name="fi" format="1">
  <advance width="553"/>
  <unicode hex="FB01"/>
  <outline>
    <contour>
      <point x="167" y="704"/>
      <point x="108" y="646"/>
      <point x="108" y="518" type="curve" smooth="yes"/>
      <point x="108" y="457" type="line"/>
      <point x="41" y="457" type="line"/>
      <point x="36" y="410" type="line"/>
      <point x="40" y="404" type="line"/>
      <point x="109" y="404" type="line"/>
      <point x="111" y="194" type="line"/>
      <point x="105" y="0" type="line"/>
      <point x="184" y="0" type="line"/>
      <point x="179" y="200" type="line"/>
      <point x="182" y="404" type="line"/>
      <point x="403" y="404" type="line"/>
      <point x="407" y="193" type="line"/>
      <point x="401" y="0" type="line"/>
      <point x="481" y="0" type="line"/>
      <point x="475" y="199" type="line"/>
      <point x="482" y="460" type="line"/>
      <point x="475" y="463" type="line"/>
      <point x="428" y="457" type="line"/>
      <point x="182" y="457" type="line"/>
      <point x="183" y="533" type="line" smooth="yes"/>
      <point x="183" y="611"/>
      <point x="216" y="646"/>
      <point x="289" y="646" type="curve" smooth="yes"/>
      <point x="329" y="646"/>
      <point x="364" y="635"/>
      <point x="406" y="615" type="curve"/>
      <point x="416" y="618" type="line"/>
      <point x="426" y="684" type="line"/>
      <point x="380" y="697"/>
      <point x="342" y="704"/>
      <point x="297" y="704" type="curve" smooth="yes"/>
    </contour>
  </outline>
</glyph>
<glyph name="C.ss01" format="1">
  <advance width="461"/>
  <outline>
    <contour>
      <point x="-100" y="464" type="line"/>
      <point x="561" y="464" type="line"/>
      <point x="561" y="498" type="line"/>
      <point x="-100" y="498" type="line"/>
    </contour>
    <contour>
      <point x="-100" y="0" type="line"/>
      <point x="561" y="0" type="line"/>
      <point x="561" y="35" type="line"/>
      <point x="-100" y="35" type="line"/>
    </contour>
    <contour>
      <point x="134" y="496"/>
      <point x="50" y="407"/>
      <point x="50" y="247" type="curve" smooth="yes"/>
      <point x="50" y="89"/>
      <point x="129" y="2"/>
      <point x="271" y="2" type="curve" smooth="yes"/>
      <point x="323" y="2"/>
      <point x="367" y="14"/>
      <point x="410" y="37" type="curve"/>
      <point x="416" y="104" type="line"/>
      <point x="408" y="108" type="line"/>
      <point x="371" y="81"/>
      <point x="321" y="63"/>
      <point x="274" y="63" type="curve" smooth="yes"/>
      <point x="179" y="63"/>
      <point x="126" y="129"/>
      <point x="126" y="252" type="curve" smooth="yes"/>
      <point x="126" y="376"/>
      <point x="179" y="436"/>
      <point x="274" y="436" type="curve" smooth="yes"/>
      <point x="323" y="436"/>
      <point x="367" y="419"/>
      <point x="399" y="392" type="curve"/>
      <point x="408" y="395" type="line"/>
      <point x="421" y="462" type="line"/>
      <point x="382" y="484"/>
      <point x="335" y="496"/>
      <point x="281" y="496" type="curve" smooth="yes"/>
    </contour>
    <contour>
      <point x="264" y="8" type="move" name="bottom"/>
    </contour>
    <contour>
      <point x="262" y="491" type="move" name="top"/>
    </contour>
  </outline>
</glyph>
<glyph name="M.ss01" format="1">
  <advance width="683"/>
  <outline>
    <contour>
      <point x="-100" y="498" type="line"/>
      <point x="-100" y="464" type="line"/>
      <point x="783" y="464" type="line"/>
      <point x="783" y="498" type="line"/>
    </contour>
    <contour>
      <point x="-100" y="35" type="line"/>
      <point x="-100" y="0" type="line"/>
      <point x="783" y="0" type="line"/>
      <point x="783" y="35" type="line"/>
    </contour>
    <contour>
      <point x="476" y="488" type="line"/>
      <point x="450" y="424" type="line"/>
      <point x="341" y="176" type="line"/>
      <point x="335" y="176" type="line"/>
      <point x="232" y="421" type="line"/>
      <point x="207" y="488" type="line"/>
      <point x="124" y="488" type="line"/>
      <point x="72" y="11" type="line"/>
      <point x="134" y="11" type="line"/>
      <point x="146" y="169" type="line"/>
      <point x="171" y="384" type="line"/>
      <point x="176" y="384" type="line"/>
      <point x="305" y="84" type="line"/>
      <point x="364" y="84" type="line"/>
      <point x="500" y="384" type="line"/>
      <point x="506" y="384" type="line"/>
      <point x="530" y="164" type="line"/>
      <point x="541" y="11" type="line"/>
      <point x="605" y="11" type="line"/>
      <point x="557" y="488" type="line"/>
    </contour>
  </outline>
</glyph>
<glyph name="Q.corta" format="1">
  <advance width="639"/>
  <outline>
    <contour>
      <point x="141" y="647"/>
      <point x="38" y="529"/>
      <point x="38" y="315" type="curve" smooth="yes"/>
      <point x="38" y="109"/>
      <point x="135" y="-8"/>
      <point x="312" y="-8" type="curve" smooth="yes"/>
      <point x="494" y="-8"/>
      <point x="598" y="117"/>
      <point x="598" y="330" type="curve" smooth="yes"/>
      <point x="598" y="535"/>
      <point x="501" y="647"/>
      <point x="326" y="647" type="curve"/>
    </contour>
    <contour>
      <point x="324" y="3" type="line"/>
      <point x="396" y="-74"/>
      <point x="485" y="-134"/>
      <point x="598" y="-188" type="curve"/>
      <point x="606" y="-185" type="line"/>
      <point x="620" y="-171"/>
      <point x="632" y="-153"/>
      <point x="643" y="-129" type="curve"/>
      <point x="641" y="-120" type="line"/>
      <point x="529" y="-79"/>
      <point x="447" y="-31"/>
      <point x="381" y="30" type="curve"/>
    </contour>
    <contour>
      <point x="449" y="581"/>
      <point x="515" y="497"/>
      <point x="515" y="324" type="curve" smooth="yes"/>
      <point x="515" y="145"/>
      <point x="446" y="59"/>
      <point x="316" y="59" type="curve" smooth="yes"/>
      <point x="186" y="59"/>
      <point x="120" y="146"/>
      <point x="120" y="322" type="curve" smooth="yes"/>
      <point x="120" y="497"/>
      <point x="185" y="581"/>
      <point x="318" y="581" type="curve" smooth="yes"/>
    </contour>
  </outline>
</glyph>
<glyph name="V.ss01" format="1">
  <advance width="500"/>
  <outline>
    <contour>
      <point x="-100" y="464" type="line"/>
      <point x="600" y="464" type="line"/>
      <point x="600" y="498" type="line"/>
      <point x="-100" y="498" type="line"/>
    </contour>
    <contour>
      <point x="-100" y="0" type="line"/>
      <point x="600" y="0" type="line"/>
      <point x="600" y="35" type="line"/>
      <point x="-100" y="35" type="line"/>
    </contour>
    <contour>
      <point x="402" y="493" type="line"/>
      <point x="390" y="435" type="line"/>
      <point x="250" y="78" type="line"/>
      <point x="245" y="78" type="line"/>
      <point x="120" y="438" type="line"/>
      <point x="107" y="493" type="line"/>
      <point x="32" y="493" type="line"/>
      <point x="203" y="6" type="line"/>
      <point x="289" y="6" type="line"/>
      <point x="475" y="493" type="line" smooth="yes"/>
    </contour>
  </outline>
</glyph>
<glyph name="a.sups" format="1">
  <advance width="320"/>
  <outline>
    <contour>
      <point x="126" y="649"/>
      <point x="84" y="634"/>
      <point x="48" y="610" type="curve"/>
      <point x="57" y="563" type="line"/>
      <point x="63" y="561" type="line"/>
      <point x="98" y="586"/>
      <point x="129" y="598"/>
      <point x="154" y="598" type="curve" smooth="yes"/>
      <point x="186" y="598"/>
      <point x="201" y="582"/>
      <point x="201" y="551" type="curve"/>
      <point x="200" y="514" type="line"/>
      <point x="99" y="495" type="line" smooth="yes"/>
      <point x="56" y="487"/>
      <point x="34" y="462"/>
      <point x="34" y="421" type="curve" smooth="yes"/>
      <point x="34" y="367"/>
      <point x="68" y="334"/>
      <point x="126" y="332" type="curve"/>
      <point x="152" y="338"/>
      <point x="178" y="356"/>
      <point x="201" y="381" type="curve"/>
      <point x="203" y="381" type="line"/>
      <point x="210" y="346"/>
      <point x="223" y="333"/>
      <point x="252" y="333" type="curve" smooth="yes"/>
      <point x="269" y="333"/>
      <point x="282" y="338"/>
      <point x="294" y="348" type="curve"/>
      <point x="302" y="388" type="line"/>
      <point x="296" y="392" type="line"/>
      <point x="290" y="387"/>
      <point x="283" y="386"/>
      <point x="277" y="386" type="curve" smooth="yes"/>
      <point x="266" y="386"/>
      <point x="261" y="394"/>
      <point x="261" y="413" type="curve" smooth="yes"/>
      <point x="261" y="429"/>
      <point x="267" y="545"/>
      <point x="267" y="564" type="curve" smooth="yes"/>
      <point x="267" y="618"/>
      <point x="231" y="649"/>
      <point x="166" y="649" type="curve" smooth="yes"/>
    </contour>
    <contour>
      <point x="197" y="419" type="line"/>
      <point x="179" y="396"/>
      <point x="157" y="383"/>
      <point x="139" y="383" type="curve" smooth="yes"/>
      <point x="113" y="383"/>
      <point x="98" y="401"/>
      <point x="98" y="427" type="curve" smooth="yes"/>
      <point x="98" y="447"/>
      <point x="108" y="459"/>
      <point x="128" y="463" type="curve" smooth="yes"/>
      <point x="198" y="479" type="line"/>
    </contour>
    <contour>
      <point x="306" y="6" type="move" name="ogonek"/>
    </contour>
    <contour>
      <point x="170" y="305" type="move" name="top"/>
    </contour>
  </outline>
</glyph>
<glyph name="acute.cap" format="1">
  <advance width="389"/>
  <outline>
    <contour>
      <point x="209" y="641"/>
      <point x="147" y="609"/>
      <point x="84" y="578" type="curve"/>
      <point x="98" y="542" type="line"/>
      <point x="108" y="538" type="line"/>
      <point x="172" y="565"/>
      <point x="235" y="592"/>
      <point x="303" y="624" type="curve"/>
      <point x="306" y="632" type="line"/>
      <point x="285" y="679" type="line"/>
      <point x="276" y="681" type="line"/>
    </contour>
    <contour>
      <point x="168" y="458" type="move" name="_top"/>
    </contour>
  </outline>
</glyph>
<glyph name="b.sups" format="1">
  <advance width="346"/>
  <outline>
    <contour>
      <point x="170" y="645"/>
      <point x="143" y="625"/>
      <point x="120" y="598" type="curve"/>
      <point x="105" y="598" type="line"/>
      <point x="108" y="550" type="line"/>
      <point x="129" y="575"/>
      <point x="152" y="589"/>
      <point x="179" y="589" type="curve" smooth="yes"/>
      <point x="224" y="589"/>
      <point x="248" y="554"/>
      <point x="248" y="490" type="curve" smooth="yes"/>
      <point x="248" y="414"/>
      <point x="216" y="379"/>
      <point x="163" y="379" type="curve" smooth="yes"/>
      <point x="138" y="379"/>
      <point x="100" y="391"/>
      <point x="63" y="418" type="curve"/>
      <point x="61" y="353" type="line"/>
      <point x="94" y="340"/>
      <point x="133" y="331"/>
      <point x="167" y="331" type="curve" smooth="yes"/>
      <point x="258" y="331"/>
      <point x="315" y="391"/>
      <point x="315" y="497" type="curve" smooth="yes"/>
      <point x="315" y="591"/>
      <point x="272" y="645"/>
      <point x="199" y="645" type="curve" smooth="yes"/>
    </contour>
    <contour>
      <point x="49" y="796" type="line"/>
      <point x="51" y="464" type="line"/>
      <point x="49" y="341" type="line"/>
      <point x="56" y="334" type="line"/>
      <point x="118" y="353" type="line"/>
      <point x="116" y="474" type="line"/>
      <point x="121" y="801" type="line"/>
    </contour>
  </outline>
</glyph>
<glyph name="breve.cap" format="1">
  <advance width="389"/>
  <outline>
    <contour>
      <point x="287" y="660" type="line"/>
      <point x="272" y="622"/>
      <point x="240" y="599"/>
      <point x="195" y="599" type="curve" smooth="yes"/>
      <point x="149" y="599"/>
      <point x="116" y="622"/>
      <point x="102" y="660" type="curve"/>
      <point x="90" y="660" type="line"/>
      <point x="68" y="632" type="line"/>
      <point x="87" y="574"/>
      <point x="131" y="542"/>
      <point x="193" y="542" type="curve" smooth="yes"/>
      <point x="254" y="542"/>
      <point x="301" y="574"/>
      <point x="321" y="632" type="curve"/>
      <point x="299" y="660" type="line"/>
    </contour>
    <contour>
      <point x="195" y="458" type="move" name="_top"/>
    </contour>
  </outline>
</glyph>
<glyph name="brevegrave" format="1">
  <advance width="389"/>
  <outline>
    <contour>
      <point x="100" y="741" type="line"/>
      <point x="100" y="733" type="line"/>
      <point x="132" y="700"/>
      <point x="164" y="668"/>
      <point x="197" y="635" type="curve"/>
      <point x="205" y="635" type="line"/>
      <point x="233" y="657" type="line"/>
      <point x="202" y="693"/>
      <point x="174" y="728"/>
      <point x="145" y="766" type="curve"/>
      <point x="137" y="767" type="line"/>
    </contour>
    <component base="breve.cap" yOffset="-20"/>
    <contour>
      <point x="195" y="458" type="move" name="_top"/>
    </contour>
  </outline>
</glyph>
<glyph name="brevetilde" format="1">
  <advance width="389"/>
  <outline>
    <component base="breve.cap" xOffset="6" yOffset="-7" xScale="0.98" yScale="0.98"/>
    <component base="tilde" xOffset="16" yOffset="137" xScale="0.94" yScale="0.97"/>
    <contour>
      <point x="195" y="458" type="move" name="_top"/>
    </contour>
  </outline>
</glyph>
<glyph name="c.sups" format="1">
  <advance width="258"/>
  <outline>
    <contour>
      <point x="84" y="649"/>
      <point x="31" y="589"/>
      <point x="31" y="487" type="curve" smooth="yes"/>
      <point x="31" y="391"/>
      <point x="79" y="331"/>
      <point x="159" y="331" type="curve" smooth="yes"/>
      <point x="190" y="331"/>
      <point x="219" y="340"/>
      <point x="244" y="350" type="curve"/>
      <point x="252" y="405" type="line"/>
      <point x="246" y="408" type="line"/>
      <point x="222" y="397"/>
      <point x="197" y="390"/>
      <point x="175" y="390" type="curve" smooth="yes"/>
      <point x="127" y="390"/>
      <point x="98" y="427"/>
      <point x="98" y="493" type="curve" smooth="yes"/>
      <point x="98" y="555"/>
      <point x="126" y="590"/>
      <point x="171" y="590" type="curve" smooth="yes"/>
      <point x="194" y="590"/>
      <point x="215" y="581"/>
      <point x="234" y="569" type="curve"/>
      <point x="241" y="572" type="line"/>
      <point x="254" y="627" type="line"/>
      <point x="232" y="639"/>
      <point x="201" y="649"/>
      <point x="171" y="649" type="curve" smooth="yes"/>
    </contour>
    <contour>
      <point x="167" y="0" type="move" name="bottom"/>
    </contour>
    <contour>
      <point x="175" y="302" type="move" name="top"/>
    </contour>
  </outline>
</glyph>
<glyph name="circumflexacute" format="1">
  <advance width="389"/>
  <outline>
    <contour>
      <point x="318" y="763" type="line"/>
      <point x="248" y="660" type="line"/>
      <point x="276" y="637" type="line"/>
      <point x="284" y="637" type="line"/>
      <point x="366" y="737" type="line"/>
      <point x="365" y="745" type="line"/>
      <point x="326" y="765" type="line"/>
    </contour>
    <component base="circumflex.cap" yOffset="-20"/>
    <contour>
      <point x="195" y="458" type="move" name="_top"/>
    </contour>
  </outline>
</glyph>
<glyph name="circumflexhookabove" format="1">
  <advance width="389"/>
  <outline>
    <component base="circumflex.cap" yOffset="-20"/>
    <component base="hookabove" xOffset="107" yOffset="124" xScale="0.95" yScale="0.95"/>
    <contour>
      <point x="195" y="458" type="move" name="_top"/>
    </contour>
  </outline>
</glyph>
<glyph name="e.sups" format="1">
  <advance width="308"/>
  <outline>
    <contour>
      <point x="84" y="649"/>
      <point x="31" y="589"/>
      <point x="31" y="488" type="curve" smooth="yes"/>
      <point x="31" y="392"/>
      <point x="83" y="331"/>
      <point x="174" y="331" type="curve" smooth="yes"/>
      <point x="207" y="331"/>
      <point x="242" y="341"/>
      <point x="271" y="353" type="curve"/>
      <point x="277" y="405" type="line"/>
      <point x="271" y="409" type="line"/>
      <point x="242" y="393"/>
      <point x="209" y="386"/>
      <point x="181" y="386" type="curve" smooth="yes"/>
      <point x="124" y="386"/>
      <point x="98" y="424"/>
      <point x="98" y="493" type="curve" smooth="yes"/>
      <point x="98" y="561"/>
      <point x="122" y="600"/>
      <point x="167" y="600" type="curve" smooth="yes"/>
      <point x="201" y="600"/>
      <point x="225" y="576"/>
      <point x="225" y="534" type="curve"/>
      <point x="225" y="531"/>
      <point x="225" y="529"/>
      <point x="224" y="521" type="curve"/>
      <point x="87" y="521" type="line"/>
      <point x="87" y="485" type="line"/>
      <point x="278" y="485" type="line"/>
      <point x="284" y="494" type="line"/>
      <point x="285" y="504"/>
      <point x="286" y="518"/>
      <point x="286" y="526" type="curve" smooth="yes"/>
      <point x="286" y="602"/>
      <point x="244" y="649"/>
      <point x="168" y="649" type="curve" smooth="yes"/>
    </contour>
    <contour>
      <point x="181" y="0" type="move" name="bottom"/>
    </contour>
    <contour>
      <point x="297" y="6" type="move" name="ogonek"/>
    </contour>
    <contour>
      <point x="175" y="302" type="move" name="top"/>
    </contour>
  </outline>
</glyph>
<glyph name="eight.lf" format="1">
  <advance width="474"/>
  <outline>
    <contour>
      <point x="144" y="592"/>
      <point x="71" y="535"/>
      <point x="71" y="439" type="curve" smooth="yes"/>
      <point x="71" y="363"/>
      <point x="119" y="325"/>
      <point x="175" y="299" type="curve"/>
      <point x="175" y="294" type="line"/>
      <point x="108" y="268"/>
      <point x="48" y="226"/>
      <point x="48" y="143" type="curve" smooth="yes"/>
      <point x="48" y="55"/>
      <point x="114" y="-7"/>
      <point x="226" y="-7" type="curve" smooth="yes"/>
      <point x="342" y="-7"/>
      <point x="420" y="57"/>
      <point x="420" y="158" type="curve" smooth="yes"/>
      <point x="420" y="244"/>
      <point x="358" y="278"/>
      <point x="295" y="306" type="curve"/>
      <point x="295" y="311" type="line"/>
      <point x="354" y="338"/>
      <point x="401" y="378"/>
      <point x="401" y="452" type="curve" smooth="yes"/>
      <point x="401" y="539"/>
      <point x="342" y="592"/>
      <point x="245" y="592" type="curve" smooth="yes"/>
    </contour>
    <contour>
      <point x="290" y="245"/>
      <point x="352" y="222"/>
      <point x="352" y="153" type="curve" smooth="yes"/>
      <point x="352" y="93"/>
      <point x="307" y="50"/>
      <point x="232" y="50" type="curve" smooth="yes"/>
      <point x="160" y="50"/>
      <point x="116" y="91"/>
      <point x="116" y="151" type="curve" smooth="yes"/>
      <point x="116" y="222"/>
      <point x="171" y="251"/>
      <point x="227" y="271" type="curve"/>
    </contour>
    <contour>
      <point x="301" y="534"/>
      <point x="338" y="501"/>
      <point x="338" y="445" type="curve" smooth="yes"/>
      <point x="338" y="381"/>
      <point x="291" y="352"/>
      <point x="242" y="331" type="curve"/>
      <point x="188" y="353"/>
      <point x="138" y="378"/>
      <point x="138" y="441" type="curve" smooth="yes"/>
      <point x="138" y="498"/>
      <point x="178" y="534"/>
      <point x="242" y="534" type="curve" smooth="yes"/>
    </contour>
  </outline>
</glyph>
<glyph name="five.dnom" format="1">
  <advance width="304"/>
  <outline>
    <contour>
      <point x="202" y="379" type="line"/>
      <point x="104" y="379" type="line"/>
      <point x="69" y="380" type="line"/>
      <point x="60" y="370" type="line"/>
      <point x="58" y="198" type="line"/>
      <point x="62" y="191" type="line"/>
      <point x="123" y="180" type="line" smooth="yes"/>
      <point x="174" y="169"/>
      <point x="196" y="150"/>
      <point x="196" y="119" type="curve" smooth="yes"/>
      <point x="196" y="75"/>
      <point x="160" y="48"/>
      <point x="102" y="48" type="curve" smooth="yes"/>
      <point x="81" y="48"/>
      <point x="58" y="50"/>
      <point x="36" y="56" type="curve"/>
      <point x="30" y="51" type="line"/>
      <point x="35" y="2" type="line"/>
      <point x="56" y="-2"/>
      <point x="83" y="-5"/>
      <point x="101" y="-5" type="curve" smooth="yes"/>
      <point x="199" y="-5"/>
      <point x="264" y="46"/>
      <point x="264" y="124" type="curve" smooth="yes"/>
      <point x="264" y="180"/>
      <point x="229" y="213"/>
      <point x="154" y="229" type="curve" smooth="yes"/>
      <point x="112" y="239" type="line"/>
      <point x="114" y="325" type="line"/>
      <point x="205" y="325" type="line"/>
      <point x="254" y="320" type="line"/>
      <point x="260" y="325" type="line"/>
      <point x="266" y="377" type="line"/>
      <point x="263" y="381" type="line"/>
    </contour>
  </outline>
</glyph>
<glyph name="five.lf" format="1">
  <advance width="424"/>
  <outline>
    <contour>
      <point x="280" y="586" type="line"/>
      <point x="145" y="586" type="line"/>
      <point x="91" y="588" type="line"/>
      <point x="79" y="576" type="line"/>
      <point x="74" y="316" type="line"/>
      <point x="80" y="308" type="line"/>
      <point x="165" y="292" type="line" smooth="yes"/>
      <point x="258" y="274"/>
      <point x="296" y="240"/>
      <point x="296" y="181" type="curve" smooth="yes"/>
      <point x="296" y="105"/>
      <point x="238" y="56"/>
      <point x="148" y="56" type="curve" smooth="yes"/>
      <point x="114" y="56"/>
      <point x="79" y="64"/>
      <point x="39" y="80" type="curve"/>
      <point x="32" y="74" type="line"/>
      <point x="38" y="3" type="line"/>
      <point x="68" y="-3"/>
      <point x="102" y="-7"/>
      <point x="132" y="-7" type="curve" smooth="yes"/>
      <point x="272" y="-7"/>
      <point x="370" y="73"/>
      <point x="370" y="194" type="curve" smooth="yes"/>
      <point x="370" y="272"/>
      <point x="328" y="325"/>
      <point x="200" y="351" type="curve" smooth="yes"/>
      <point x="136" y="365" type="line"/>
      <point x="141" y="520" type="line"/>
      <point x="288" y="520" type="line"/>
      <point x="362" y="515" type="line"/>
      <point x="368" y="521" type="line"/>
      <point x="376" y="584" type="line"/>
      <point x="371" y="590" type="line"/>
    </contour>
  </outline>
</glyph>
<glyph name="four.lf" format="1">
  <advance width="492"/>
  <outline>
    <contour>
      <point x="281" y="586" type="line"/>
      <point x="30" y="225" type="line"/>
      <point x="30" y="173" type="line"/>
      <point x="36" y="166" type="line"/>
      <point x="101" y="168" type="line"/>
      <point x="355" y="168" type="line"/>
      <point x="446" y="166" type="line"/>
      <point x="451" y="222" type="line"/>
      <point x="445" y="229" type="line"/>
      <point x="100" y="229" type="line"/>
      <point x="281" y="490" type="line"/>
      <point x="287" y="490" type="line"/>
      <point x="288" y="211" type="line"/>
      <point x="285" y="1" type="line"/>
      <point x="290" y="-5" type="line"/>
      <point x="351" y="0" type="line"/>
      <point x="356" y="7" type="line"/>
      <point x="352" y="200" type="line"/>
      <point x="354" y="586" type="line"/>
    </contour>
  </outline>
</glyph>
<glyph name="k.sups" format="1">
  <advance width="300"/>
  <outline>
    <contour>
      <point x="218" y="644" type="line"/>
      <point x="202" y="612" type="line"/>
      <point x="123" y="502" type="line"/>
      <point x="123" y="498" type="line"/>
      <point x="154" y="442"/>
      <point x="189" y="387"/>
      <point x="226" y="335" type="curve"/>
      <point x="234" y="332" type="line"/>
      <point x="256" y="335"/>
      <point x="278" y="337"/>
      <point x="299" y="342" type="curve"/>
      <point x="299" y="350" type="line"/>
      <point x="263" y="401"/>
      <point x="225" y="452"/>
      <point x="193" y="504" type="curve"/>
      <point x="292" y="644" type="line"/>
    </contour>
    <contour>
      <point x="50" y="796" type="line"/>
      <point x="53" y="465" type="line"/>
      <point x="49" y="338" type="line"/>
      <point x="121" y="338" type="line"/>
      <point x="117" y="471" type="line"/>
      <point x="121" y="801" type="line"/>
    </contour>
    <contour>
      <point x="176" y="0" type="move" name="bottom"/>
    </contour>
  </outline>
</glyph>
<glyph name="macron.i" format="1">
  <advance width="389"/>
  <outline>
    <contour>
      <point x="87" y="634" type="line"/>
      <point x="82" y="588" type="line"/>
      <point x="88" y="582" type="line"/>
      <point x="305" y="582" type="line"/>
      <point x="309" y="629" type="line"/>
      <point x="303" y="634" type="line"/>
    </contour>
    <contour>
      <point x="195" y="458" type="move" name="_top"/>
    </contour>
  </outline>
</glyph>
<glyph name="nine.tosf" format="1">
  <advance width="475"/>
  <outline>
    <contour>
      <point x="110" y="506"/>
      <point x="44" y="428"/>
      <point x="44" y="318" type="curve"/>
      <point x="44" y="218"/>
      <point x="103" y="150"/>
      <point x="207" y="150" type="curve" smooth="yes"/>
      <point x="255" y="150"/>
      <point x="299" y="167"/>
      <point x="336" y="193" type="curve"/>
      <point x="352" y="177" type="line"/>
      <point x="364" y="262" type="line"/>
      <point x="323" y="229"/>
      <point x="275" y="208"/>
      <point x="227" y="208" type="curve" smooth="yes"/>
      <point x="155" y="208"/>
      <point x="115" y="249"/>
      <point x="115" y="324" type="curve"/>
      <point x="115" y="406"/>
      <point x="158" y="452"/>
      <point x="238" y="452" type="curve"/>
      <point x="318" y="452"/>
      <point x="355" y="393"/>
      <point x="355" y="287" type="curve"/>
      <point x="355" y="123"/>
      <point x="270" y="20"/>
      <point x="78" y="-50" type="curve"/>
      <point x="78" y="-60" type="line"/>
      <point x="124" y="-95" type="line"/>
      <point x="129" y="-95" type="line"/>
      <point x="319" y="-21"/>
      <point x="427" y="117"/>
      <point x="427" y="288" type="curve"/>
      <point x="427" y="427"/>
      <point x="358" y="506"/>
      <point x="239" y="506" type="curve"/>
    </contour>
  </outline>
</glyph>
<glyph name="one.tf" format="1">
  <advance width="475"/>
  <outline>
    <contour>
      <point x="40" y="533" type="line"/>
      <point x="40" y="470" type="line"/>
      <point x="48" y="465" type="line"/>
      <point x="217" y="502" type="line"/>
      <point x="218" y="197" type="line"/>
      <point x="214" y="0" type="line"/>
      <point x="294" y="0" type="line"/>
      <point x="289" y="207" type="line"/>
      <point x="295" y="584" type="line"/>
      <point x="283" y="594" type="line"/>
    </contour>
  </outline>
</glyph>
<glyph name="puso" format="1">
  <advance width="120"/>
  <outline>
    <contour>
      <point x="63" y="124" type="move"/>
    </contour>
    <component base="quotesingle" xOffset="-25" yOffset="-342" yScale="1.36"/>
  </outline>
</glyph>
<glyph name="r.sups" format="1">
  <advance width="216"/>
  <outline>
    <contour>
      <point x="50" y="638" type="line"/>
      <point x="53" y="465" type="line"/>
      <point x="49" y="338" type="line"/>
      <point x="121" y="338" type="line"/>
      <point x="117" y="471" type="line"/>
      <point x="117" y="645" type="line"/>
    </contour>
    <contour>
      <point x="165" y="644"/>
      <point x="141" y="622"/>
      <point x="121" y="578" type="curve"/>
      <point x="110" y="578" type="line"/>
      <point x="110" y="515" type="line"/>
      <point x="136" y="560"/>
      <point x="157" y="579"/>
      <point x="185" y="579" type="curve" smooth="yes"/>
      <point x="191" y="579"/>
      <point x="197" y="578"/>
      <point x="204" y="576" type="curve"/>
      <point x="213" y="580" type="line"/>
      <point x="213" y="643" type="line"/>
      <point x="207" y="644"/>
      <point x="202" y="644"/>
      <point x="198" y="644" type="curve" smooth="yes"/>
    </contour>
    <contour>
      <point x="90" y="0" type="move" name="bottom"/>
    </contour>
    <contour>
      <point x="140" y="302" type="move" name="top"/>
    </contour>
  </outline>
</glyph>
<glyph name="seven.tosf" format="1">
  <advance width="475"/>
  <outline>
    <contour>
      <point x="35" y="436" type="line"/>
      <point x="41" y="427" type="line"/>
      <point x="121" y="432" type="line"/>
      <point x="357" y="432" type="line"/>
      <point x="101" y="-71" type="line"/>
      <point x="105" y="-84" type="line"/>
      <point x="170" y="-102" type="line"/>
      <point x="219" y="17" type="line"/>
      <point x="433" y="441" type="line"/>
      <point x="433" y="500" type="line"/>
      <point x="387" y="498" type="line"/>
      <point x="136" y="498" type="line"/>
      <point x="41" y="501" type="line"/>
    </contour>
  </outline>
</glyph>
<glyph name="six.lf" format="1">
  <advance width="472"/>
  <outline>
    <contour>
      <point x="341" y="594" type="line"/>
      <point x="154" y="519"/>
      <point x="46" y="381"/>
      <point x="46" y="211" type="curve"/>
      <point x="46" y="73"/>
      <point x="107" y="-8"/>
      <point x="231" y="-8" type="curve"/>
      <point x="355" y="-8"/>
      <point x="426" y="71"/>
      <point x="426" y="180" type="curve"/>
      <point x="426" y="281"/>
      <point x="367" y="349"/>
      <point x="267" y="349" type="curve" smooth="yes"/>
      <point x="217" y="349"/>
      <point x="174" y="332"/>
      <point x="137" y="305" type="curve"/>
      <point x="122" y="322" type="line"/>
      <point x="109" y="230" type="line"/>
      <point x="150" y="269"/>
      <point x="196" y="290"/>
      <point x="245" y="290" type="curve" smooth="yes"/>
      <point x="315" y="290"/>
      <point x="355" y="247"/>
      <point x="355" y="169" type="curve"/>
      <point x="355" y="89"/>
      <point x="310" y="47"/>
      <point x="238" y="47" type="curve"/>
      <point x="154" y="47"/>
      <point x="118" y="103"/>
      <point x="118" y="211" type="curve"/>
      <point x="118" y="375"/>
      <point x="203" y="478"/>
      <point x="408" y="550" type="curve"/>
      <point x="408" y="558" type="line"/>
      <point x="346" y="594" type="line"/>
    </contour>
  </outline>
</glyph>
<glyph name="six.tosf" format="1">
  <advance width="475"/>
  <outline>
    <contour>
      <point x="346" y="594" type="line"/>
      <point x="156" y="519"/>
      <point x="48" y="381"/>
      <point x="48" y="211" type="curve"/>
      <point x="48" y="73"/>
      <point x="117" y="-8"/>
      <point x="235" y="-8" type="curve"/>
      <point x="366" y="-8"/>
      <point x="431" y="71"/>
      <point x="431" y="181" type="curve"/>
      <point x="431" y="281"/>
      <point x="372" y="349"/>
      <point x="268" y="349" type="curve" smooth="yes"/>
      <point x="220" y="349"/>
      <point x="176" y="332"/>
      <point x="139" y="305" type="curve"/>
      <point x="124" y="322" type="line"/>
      <point x="111" y="237" type="line"/>
      <point x="152" y="271"/>
      <point x="200" y="290"/>
      <point x="248" y="290" type="curve" smooth="yes"/>
      <point x="320" y="290"/>
      <point x="360" y="250"/>
      <point x="360" y="175" type="curve"/>
      <point x="360" y="92"/>
      <point x="317" y="47"/>
      <point x="237" y="47" type="curve"/>
      <point x="157" y="47"/>
      <point x="120" y="106"/>
      <point x="120" y="211" type="curve"/>
      <point x="120" y="375"/>
      <point x="205" y="478"/>
      <point x="397" y="550" type="curve"/>
      <point x="397" y="558" type="line"/>
      <point x="352" y="594" type="line"/>
    </contour>
  </outline>
</glyph>
<glyph name="three.lf" format="1">
  <advance width="429"/>
  <outline>
    <contour>
      <point x="139" y="595"/>
      <point x="87" y="574"/>
      <point x="36" y="532" type="curve"/>
      <point x="48" y="470" type="line"/>
      <point x="57" y="470" type="line"/>
      <point x="100" y="508"/>
      <point x="138" y="529"/>
      <point x="181" y="529" type="curve" smooth="yes"/>
      <point x="234" y="529"/>
      <point x="268" y="499"/>
      <point x="268" y="451" type="curve" smooth="yes"/>
      <point x="268" y="384"/>
      <point x="202" y="338"/>
      <point x="148" y="338" type="curve" smooth="yes"/>
      <point x="104" y="337" type="line"/>
      <point x="102" y="282" type="line"/>
      <point x="107" y="276" type="line"/>
      <point x="166" y="276" type="line"/>
      <point x="249" y="273"/>
      <point x="295" y="236"/>
      <point x="295" y="173" type="curve" smooth="yes"/>
      <point x="295" y="102"/>
      <point x="235" y="56"/>
      <point x="147" y="56" type="curve" smooth="yes"/>
      <point x="113" y="56"/>
      <point x="78" y="63"/>
      <point x="45" y="77" type="curve"/>
      <point x="39" y="71" type="line"/>
      <point x="44" y="3" type="line"/>
      <point x="74" y="-2"/>
      <point x="111" y="-6"/>
      <point x="143" y="-6" type="curve" smooth="yes"/>
      <point x="278" y="-6"/>
      <point x="370" y="71"/>
      <point x="370" y="183" type="curve" smooth="yes"/>
      <point x="370" y="251"/>
      <point x="328" y="296"/>
      <point x="248" y="315" type="curve"/>
      <point x="248" y="319" type="line"/>
      <point x="318" y="355"/>
      <point x="349" y="414"/>
      <point x="349" y="467" type="curve" smooth="yes"/>
      <point x="349" y="543"/>
      <point x="287" y="595"/>
      <point x="196" y="595" type="curve" smooth="yes"/>
    </contour>
  </outline>
</glyph>
<glyph name="uni0066006A" format="1">
  <advance width="565"/>
  <outline>
    <contour>
      <point x="167" y="704"/>
      <point x="108" y="646"/>
      <point x="108" y="518" type="curve" smooth="yes"/>
      <point x="109" y="457" type="line"/>
      <point x="41" y="457" type="line"/>
      <point x="36" y="410" type="line"/>
      <point x="40" y="404" type="line"/>
      <point x="109" y="404" type="line"/>
      <point x="111" y="195" type="line"/>
      <point x="105" y="0" type="line"/>
      <point x="184" y="0" type="line"/>
      <point x="179" y="201" type="line"/>
      <point x="182" y="404" type="line"/>
      <point x="403" y="404" type="line"/>
      <point x="407" y="194" type="line"/>
      <point x="405" y="15" type="line"/>
      <point x="405" y="-66"/>
      <point x="381" y="-107"/>
      <point x="311" y="-149" type="curve"/>
      <point x="311" y="-158" type="line"/>
      <point x="341" y="-194" type="line"/>
      <point x="442" y="-141"/>
      <point x="480" y="-86"/>
      <point x="480" y="19" type="curve"/>
      <point x="475" y="201" type="line"/>
      <point x="482" y="460" type="line"/>
      <point x="475" y="463" type="line"/>
      <point x="428" y="457" type="line"/>
      <point x="183" y="457" type="line"/>
      <point x="183" y="533" type="line" smooth="yes"/>
      <point x="183" y="611"/>
      <point x="216" y="646"/>
      <point x="289" y="646" type="curve" smooth="yes"/>
      <point x="329" y="646"/>
      <point x="364" y="635"/>
      <point x="406" y="615" type="curve"/>
      <point x="416" y="618" type="line"/>
      <point x="426" y="684" type="line"/>
      <point x="380" y="697"/>
      <point x="342" y="704"/>
      <point x="297" y="704" type="curve" smooth="yes"/>
    </contour>
  </outline>
</glyph>
<glyph name="v.sups" format="1">
  <advance width="281"/>
  <outline>
    <contour>
      <point x="12" y="641" type="line"/>
      <point x="100" y="338" type="line"/>
      <point x="178" y="338" type="line"/>
      <point x="281" y="644" type="line"/>
      <point x="218" y="644" type="line"/>
      <point x="207" y="595" type="line"/>
      <point x="145" y="408" type="line"/>
      <point x="140" y="408" type="line"/>
      <point x="88" y="599" type="line"/>
      <point x="80" y="646" type="line"/>
    </contour>
  </outline>
</glyph>
<glyph name="zero.sinf" format="1">
  <advance width="374"/>
  <outline>
    <contour>
      <point x="94" y="262"/>
      <point x="40" y="192"/>
      <point x="40" y="64" type="curve" smooth="yes"/>
      <point x="40" y="-58"/>
      <point x="91" y="-125"/>
      <point x="182" y="-125" type="curve" smooth="yes"/>
      <point x="280" y="-125"/>
      <point x="333" y="-55"/>
      <point x="333" y="74" type="curve" smooth="yes"/>
      <point x="333" y="195"/>
      <point x="283" y="262"/>
      <point x="192" y="262" type="curve" smooth="yes"/>
    </contour>
    <contour>
      <point x="246" y="198"/>
      <point x="277" y="154"/>
      <point x="277" y="65" type="curve" smooth="yes"/>
      <point x="277" y="-20"/>
      <point x="247" y="-65"/>
      <point x="187" y="-65" type="curve" smooth="yes"/>
      <point x="126" y="-65"/>
      <point x="96" y="-20"/>
      <point x="96" y="70" type="curve" smooth="yes"/>
      <point x="96" y="155"/>
      <point x="126" y="198"/>
      <point x="186" y="198" type="curve" smooth="yes"/>
    </contour>
  </outline>
</glyph>
<glyph name="zero.tosf" format="1">
  <advance width="475"/>
  <outline>
    <contour>
      <point x="111" y="504"/>
      <point x="35" y="410"/>
      <point x="35" y="242" type="curve" smooth="yes"/>
      <point x="35" y="83"/>
      <point x="107" y="-7"/>
      <point x="234" y="-7" type="curve" smooth="yes"/>
      <point x="366" y="-7"/>
      <point x="441" y="87"/>
      <point x="441" y="252" type="curve" smooth="yes"/>
      <point x="441" y="414"/>
      <point x="370" y="504"/>
      <point x="244" y="504" type="curve" smooth="yes"/>
    </contour>
    <contour>
      <point x="329" y="431"/>
      <point x="378" y="367"/>
      <point x="378" y="243" type="curve" smooth="yes"/>
      <point x="378" y="125"/>
      <point x="330" y="63"/>
      <point x="239" y="63" type="curve" smooth="yes"/>
      <point x="145" y="63"/>
      <point x="97" y="126"/>
      <point x="97" y="248" type="curve" smooth="yes"/>
      <point x="97" y="369"/>
      <point x="145" y="431"/>
      <point x="237" y="431" type="curve" smooth="yes"/>
    </contour>
  </outline>
</glyph>
